<?xml version="1.0" encoding="utf-8"?>
<!-- Generator: Adobe Illustrator 19.0.1, SVG Export Plug-In . SVG Version: 6.00 Build 0)  -->
<svg version="1.1" id="Calque_1" xmlns="http://www.w3.org/2000/svg" xmlns:xlink="http://www.w3.org/1999/xlink" x="0px" y="0px"
	 viewBox="0 0 48 48" style="enable-background:new 0 0 48 48;" xml:space="preserve">
<path id="next_2_" d="M0,48L0,0l48,0v48H0z M0.7,47.3h46.6V0.7H0.7V47.3z M1.4,46.6l0-45.1h45.1v45.1H1.4z M2,19.4
	c-0.1,0.2-0.2,0.4-0.2,0.6c0,0.2,0.1,0.2,0.2,0.2h0.1H1.9l0.2,0.1l0.2-0.6c0-0.1,0.2-0.2,0.5-0.2c0.3,0,0.5,0.2,0.6,0.5l0.2,0.6v0.4
	c0,0.6-0.1,1.2-0.4,1.7l-0.1,0.4c0.3,0,0.5-0.2,0.5-0.6L4,21.2l0.1-0.3c0-1.3-0.5-1.9-1.4-1.9C2.5,19,2.3,19.2,2,19.4z M2.4,24.7
	C2.2,25.3,2,25.9,2,26.5c0.2,0.8,0.4,1.5,0.5,2.1c0.1,0.6,0.2,1,0.3,1.3c0,0.1,0.1,0.3,0.1,0.5c0,0.3-0.2,0.5-0.5,0.5L2.2,31
	c0,0-0.1-0.1-0.1-0.1c0,0-0.1-0.1-0.1-0.1L2,30.3L2,30.1l0.2-1L2,29.1L2,29.4l-0.1,0.5v0.5l-0.1-0.2v0.4l0.1,0.5
	c0.1,0.4,0.3,0.6,0.5,0.6c0.5,0,0.7-0.5,0.7-1.4c0-0.3,0-0.5-0.1-0.5l-0.6-2.3c-0.1-0.4-0.2-0.7-0.2-1.1c0-0.5,0.1-1,0.4-1.6
	L2.4,24.7z M2.8,33.7c-0.2,0.3-0.2,0.6-0.2,0.9c0,0.1,0,0.2,0,0.3c0,0.1,0,0.3,0.1,0.5l-0.6,0.4c-0.2,0.3-0.3,0.5-0.3,0.7v0.4
	L2,37.4L3,39v0.3C3,39.7,2.8,40,2.5,40c0,0-0.2,0-0.5-0.1L1.9,40c0,0.3,0.2,0.4,0.6,0.4c0.5,0,0.7-0.2,0.7-0.6v-0.2
	c0-0.2,0-0.3-0.1-0.4l-0.1-0.5c0-0.1,0-0.2-0.1-0.4c-0.1-0.2-0.2-0.4-0.3-0.5c-0.1-0.2-0.2-0.3-0.3-0.5c-0.1-0.2-0.1-0.3-0.1-0.3
	s0-0.1,0.1-0.2l0.1-0.1c0.2,0,0.4,0.2,0.6,0.5l0.2,0.7l0.5,1c0.3,0.6,0.7,1,1.2,1.2l-0.4-0.5c-0.3-0.4-0.5-0.8-0.8-1.3
	c-0.3-0.5-0.5-1.1-0.7-1.8c-0.2-0.7-0.3-1.1-0.3-1.1L3,35.3v-1C3,34,2.9,33.8,2.8,33.7z M1.9,22.4v0.5c0,0.4,0.1,0.7,0.3,0.9L3,24.5
	L3.3,25c0.1,0.3,0.2,0.6,0.2,0.7c0,0.2-0.1,0.3-0.1,0.5v0.4l-0.4,1V28c0.2-0.1,0.4-0.3,0.5-0.7l0.3-0.8c0-0.2,0.1-0.3,0.1-0.5
	c0-0.2,0-0.3,0-0.5V25c0-0.4-0.2-0.8-0.6-1.1c-0.4-0.3-0.7-0.6-0.9-1.1l0.1-0.6l0.8-0.5L3.2,21H3c-0.4,0-0.7,0.3-0.9,1
	C2.1,22,2,22.1,1.9,22.4z M2.1,8.7V9C2.1,9.2,2,9.4,2,9.6C2,9.8,2,9.9,2,10v0.4C2,10.7,2,11,2,11.2L2,10.9l0.2,1.3l0.1,0.5l0.2,0.8
	c0.2,0.2,0.2,0.3,0.2,0.4c0,0,0,0.1-0.1,0.2c-0.2,0.1-0.3,0.3-0.3,0.4c0,0.3,0.2,0.6,0.5,1.1c0.5,0.5,0.8,1,0.8,1.4
	c0,0,0,0.1-0.1,0.2l-0.3,0.4l-0.9-0.1L1.9,17v0.8c0.4,0.4,0.8,0.6,1.2,0.6c0.4,0,0.7-0.1,0.8-0.4l0.4-1l0.3,0.1l0.1,0.1
	c0,0.2,0.1,0.2,0.2,0.2c0.2,0,0.2-0.2,0.2-0.5c0-0.5-0.2-0.9-0.6-1.3l-0.2-0.1C4,15.3,3.8,15,3.8,14.8c0-0.2,0.1-0.2,0.3-0.2
	c0.2,0,0.4,0.1,0.7,0.2l0.5,0.4l0.3,0.2c0.4,0.4,0.9,0.6,1.5,0.5h0.6l0.2-0.4l0.5-0.2c0.4-0.2,0.6-0.5,0.6-1.1
	c0-0.9-0.4-1.4-1.3-1.4H7.4C7.8,13.1,8,13.5,8,13.9L8,14.2c-0.3,0.2-0.6,0.4-0.7,0.4c-0.1,0-0.2,0-0.3,0c-0.1,0-0.3,0-0.5-0.1
	l-0.8-0.6l-0.4-0.5L4.8,13l-0.7-0.1c-0.1,0.3-0.2,0.5-0.4,0.5H3.6l-0.1-0.1c-0.7-0.9-1-1.9-1-3.1c0-1,0.1-1.8,0.4-2.3
	C3.1,7.4,3.2,7.1,3.2,7c0-0.2-0.1-0.3-0.3-0.3L2.8,6.8C2.2,7.4,2,8,2.1,8.7z M3.8,2.8L2,2.5l0.4,0.7l0.8,0.3L2.8,4
	c0,0.1,0.1,0.1,0.4,0.1c0.7,0,1.3-0.3,1.9-0.8l0.5-0.3l0.2,0.1v0.2L5.2,3.6L4.7,4L4.3,4.2C4.2,4.3,4.2,4.4,4.2,4.4
	c0,0.1,0.1,0.1,0.2,0.1c0.2,0,0.5-0.2,0.9-0.6C5.4,3.9,6,3.6,7,3.1l0.7-0.4h0.2l0.4,0.1V3H8L7.6,3.1L6.8,3.4v0.1
	c0.4,0,0.5,0.1,0.5,0.2c0,0.1-0.1,0.2-0.1,0.2L7.3,4L7.3,4.3c0,0.2,0.3,0.4,0.8,0.4h0.2c0.1,0,0.2-0.1,0.3-0.1c0.2,0,0.3,0,0.3-0.1
	L10,4.1h0.7c-0.3-0.2-0.5-0.3-0.7-0.3C9.9,3.8,9.7,3.9,9.5,4C9.2,4.1,9,4.1,8.9,4.1C8.7,4.1,8.5,4,8.5,3.8c0-0.6,0.8-0.8,2.5-0.8
	c1.6,0,3,0.3,4.1,1L16,4.5l0.5,0.3c0.2-0.2,0.3-0.3,0.3-0.4c-0.2-0.2-0.3-0.3-0.4-0.3l-1.1-0.7l-0.9-0.5c-1.8-0.6-3.3-1-4.5-1H9.5
	C9.2,2,9,2,8.8,2C8.6,2,8.4,2,8.2,2C7.9,2,7.7,2,7.7,2L5.5,2.6c-0.4,0.1-0.7,0.2-1,0.2L3.8,2.8z M4.4,21.4l-0.2,1.1l0.1,0.2l0.1,0.1
	l0.3,1l-0.1,2l-0.4,1.6L4,28l-0.3,1.5l-0.4,3.2v1.4l0.5-0.4v0.6c0,1.2,0.2,2.1,0.5,2.9l0.2,0.5l-0.4,0.1H4.1l0.1,0.2l0.3,0.7l0.7,1
	c0.3,0.3,0.6,0.6,0.8,0.9S6.6,41,7,41c0,0,0.6,0.5,1.8,1.4L9.3,43c0.5,0.6,1.3,0.9,2.2,1c0.3,0,0.5,0.2,0.6,0.5l0.1-0.1
	c-0.2,0.1-0.4,0.2-0.5,0.2c0,0-0.1,0-0.5-0.1l-0.3-0.1L10.2,44l-0.7-0.4L8.8,43l-0.3-0.4l-0.8-0.8l-0.2-0.2l-0.7-0.4
	c-0.1,0-0.3,0-0.6-0.1C5.9,41,5.6,41,5.5,41c0,0-0.1,0-0.4,0.1c0.2,0.3,0.4,0.6,0.4,1L5,41.9c-0.7-0.2-1.2-0.4-1.4-0.4
	c-0.7,0-1.2,0.2-1.4,0.6v0.1c0.2,0.2,0.4,0.5,0.5,0.8c-0.3,0.2-0.5,0.4-0.5,0.7L2,44.2v0.4c0.2,0.1,0.4,0.2,0.4,0.3v0.1
	c0,0.1-0.1,0.2-0.1,0.4c0,0,0.3,0.3,1,0.7h0.6c0.3,0.1,0.5,0,0.7-0.2L5.8,45c0.2-0.1,0.4-0.2,0.7-0.2c0.5,0,1,0.1,1.6,0.4v0.1
	c0,0.1-0.1,0.2-0.2,0.3l-1-0.2l-0.5,0.2L7,45.7L7.7,46h0.7c0.2,0,0.4-0.2,0.4-0.4c0-0.3-0.3-0.5-0.8-0.8c-0.7-0.2-1.3-0.4-1.8-0.4
	c-0.1,0-0.3,0-0.4,0.1c-0.2,0.1-0.5,0.2-1,0.4l-0.2,0.1H3.6c-0.3-0.2-0.4-0.4-0.3-0.6v-0.3C3.4,44.2,3.5,44,3.6,44s0.3-0.2,0.4-0.3
	l0.7-0.2c0.3-0.1,0.5-0.1,0.5-0.1h0.1l0.8,0.4L6.9,44l1.6,0.7l1.9,0.6c0.5,0.2,1.2,0.2,2.1,0.2h0.2l2.8-0.2c0.1,0,0.2,0,0.2,0.1
	l-0.1,0.3l0.7-0.2l0.5-0.3c0.1-0.1,0.6-0.2,1.5-0.4c0.5-0.1,1-0.2,1.3-0.2H20c0.6,0,1.1,0.1,1.3,0.1c0.2,0,0.3,0,0.1,0H22
	c-0.5-0.8-1.1-1.1-1.8-1.1c-0.2,0-0.4,0.1-0.7,0.3L19.4,44l1.6,0.1l0.1,0.2L20,44.4c-0.2,0-0.4-0.1-0.7-0.1h-0.5
	c-0.4,0-0.9,0.1-1.6,0.2l0.1-0.2c2.6-0.5,3.9-1.5,3.8-2.9v-0.5c-0.2-0.8-0.5-1.1-1.1-1.1c-1,0-1.6,0.4-1.6,1.1c0,0.2,0,0.3,0.1,0.3
	c0.2-0.4,0.4-0.6,0.7-0.6c0.7,0,1,0.3,1,0.8c0,0.2-0.1,0.4-0.2,0.7c-0.6,0.7-1.2,1.1-1.7,1.4l-0.2,0.1l-0.6,0.2c0,0-0.1,0.1-0.3,0.1
	c-0.2,0-0.2-0.1-0.2-0.2c0-0.1,0.2-0.2,0.6-0.4c0.3-0.1,0.4-0.3,0.4-0.6c0-0.3-0.2-0.4-0.6-0.4h-0.1h-0.3l-0.2,0.1
	c-0.1,0.7-0.4,1.1-1,1.1c-0.2-0.1-0.3-0.1-0.3-0.2c0.1-0.1,0.2-0.2,0.2-0.4h-1.9l-0.1-0.2l1.2-0.1l0.6-0.1c1.3-0.2,1.9-0.7,1.9-1.3
	c0-0.3-0.3-0.6-0.9-0.8l-1-0.4L15.3,40l-0.6-0.2l-0.8-0.4L13.5,39c-0.4-0.5-0.5-1-0.5-1.5c0-0.7,0.3-1.1,0.9-1.1c0,0,0.1,0,0.2,0
	c0.1,0,0.3,0,0.5,0.1c0.2,0.4,0.4,0.6,0.4,0.8c0,0.3-0.2,0.5-0.5,0.7v0.2c0.9-0.4,1.3-0.9,1.3-1.7c0-0.4-0.2-0.7-0.6-1
	c-0.4-0.3-0.8-0.4-1.2-0.4c-0.1,0-0.4,0.1-1,0.3c-0.4,0.6-0.7,0.9-0.7,1.1l0.1,0.5l-0.3,0.1l-0.9-0.4v1.1l0.2,0.5l0.3,0.6l0.2,0.2
	l-0.1,0.2c-0.1,0-0.3-0.1-0.5-0.1c-0.1,0-0.1,0-0.1,0.1c0,0.1,0.1,0.2,0.1,0.2c0,0.1,0.1,0.2,0.1,0.2l0.1,0.2c0.6,0.7,1.1,1,1.7,1
	h0.1l1-0.2h0.3c0.2,0,0.4,0,0.4,0.2c0,0.2-0.2,0.4-0.5,0.4c-0.3,0-0.6,0.1-0.8,0.1h-0.1h-0.3l-0.5-0.2L12,41.3L11.3,41L10,40.4
	L9.5,40l-1.1-1c-0.9-1.5-1.4-2.8-1.4-3.8c0-0.9,0.3-1.7,0.8-2.3C8.4,32.4,9,32,9.7,32c0.3,0,0.5,0,0.6,0.1c0.4,0.3,0.5,0.6,0.5,0.8
	c0,0.1-0.1,0.3-0.3,0.6l-0.4,0.5l-1,0.3l-0.4,0.4l-0.4,0.5c-0.2,0.5-0.3,0.8-0.3,0.9v0.4c0,0.2,0,0.3,0.1,0.4l0.1,0.2
	c0.3,0.8,0.8,1.2,1.6,1.3c0.5-0.3,0.8-0.6,0.8-0.9c0-0.2-0.1-0.4-0.4-0.6c0,0.1,0.1,0.2,0.1,0.4c0,0.1,0,0.2-0.1,0.3
	c-0.1,0.1-0.2,0.2-0.4,0.2c-0.5-0.2-0.8-0.5-0.8-1.1c0-1,0.3-1.4,1-1.4h1c0.4,0,0.7-0.3,0.8-1l0.5-0.1v0.4c0.2,0,0.3-0.2,0.4-0.5
	l0.1-0.8c0-0.4-0.2-0.8-0.6-1.3l-0.5-0.4v-0.2c0.4-0.2,0.5-0.5,0.5-0.9v-0.1L11,30.4l-0.7-0.2c0,0-0.1-0.1-0.2-0.1h-0.1
	c-0.4,0-0.6,0-0.6,0.1c-0.2,0.2-0.5,0.4-0.8,0.6l-0.1-0.1c0-0.1,0.1-0.3,0.1-0.5v-0.4c0-0.6-0.1-0.9-0.4-1l-0.7,0.4
	c-0.6,0.6-1.1,1.7-1.4,3.4L6,33.5c-0.2,0.7-0.4,1-0.6,1L5,34.4v-0.6l1-2.3c0.3-0.6,0.4-1.4,0.4-2.5l-0.1-0.3c0-0.2-0.1-0.4-0.1-0.5
	H6.1c-0.2,0.2-0.4,0.4-0.4,0.8c0,0.3-0.1,0.4-0.2,0.4c-0.2,0-0.3,0-0.3-0.1c0-0.1-0.1-0.3-0.1-0.5c0,0,0-0.2,0.1-0.5l1.1-2l0.2-0.7
	c0.1-0.4,0.2-0.8,0.2-1.1c0-0.5-0.2-1-0.5-1.6c-0.1,0.5-0.3,0.8-0.5,0.8H5.6c-0.2,0-0.2-0.1-0.2-0.2L5,22L4.4,21.4z M5.7,5L3.8,5
	L3.4,4.9C3,4.9,2.7,5,2.7,5.2c0,0.3,0.2,0.5,0.6,0.7l1.9,0.7l1.3,1.1L6.9,8l1,1.9l2.5,6.7l1.7,4.1c0,0.2,0.1,0.4,0.3,0.4
	c0.1,0,0.2,0,0.2-0.1l0.4-0.2l0.6-0.2l1.6-1c0.1-0.1,0.1-0.2,0.1-0.2c0-0.1-0.1-0.3-0.4-0.7l-2.7-6.8l-0.5,0.1l-0.4-0.2l-1,0.1
	l-0.4-0.3c-0.2-0.5-0.3-0.9-0.3-1.1c0-0.6,0.2-1,0.7-1.2l0.9-0.5l0.1-0.9c0-0.6,0.4-1.2,1.2-1.6c0.8-0.4,1.1-0.7,1.1-0.8
	c0-0.3-0.2-0.4-0.7-0.4c-0.2,0-0.4,0-0.5,0.1C12,5,11.6,5,11.1,5c-0.5,0-1.2,0-2,0H8.4H5.7z M2.8,5.8c0.2,0.4,0.4,0.6,0.7,0.7
	c0.3,0.1,0.9,0.3,1.7,0.6c0.1,0,0.2,0.1,0.2,0.1c0.1,0,0.2,0.1,0.3,0.1C5.3,6.9,4.9,6.6,4.4,6.5L3.5,6.2L2.8,5.8z M4.1,42.1l-1-0.1
	c0-0.2,0.2-0.4,0.5-0.4c0.4,0,0.6,0.1,0.6,0.3C4.2,42,4.1,42.1,4.1,42.1H4H4.1z M4.8,14.3l-0.7-0.1H3.8l-0.3,0.5l-0.2,0.2h0.2
	c-0.2,0-0.2-0.1-0.2-0.2c0-0.1,0.1-0.3,0.4-0.5C3.7,14,3.8,14,3.8,14L4.8,14.3z M3.7,7.1L3.4,8.3L3.4,8.8c0,0.9,0.3,1.6,0.8,2.3
	c0.5,0.6,1,0.9,1.6,0.9c0.2,0,0.5-0.1,1-0.2v-0.5l0.5-0.7v-0.2l0.1-0.2c0-0.2-0.1-0.5-0.3-0.8C6.6,9.2,6.4,9,6.2,9
	C6,9,5.8,9.1,5.5,9.2C6.1,9.4,6.4,9.6,6.4,10c0,0.6-0.3,0.9-0.8,0.8H5.2l-0.6-0.4C4,9.8,3.7,9.1,3.7,8.4c0-0.2,0-0.3,0.1-0.4
	l0.1-0.7L3.7,7.1z M3.4,34.2v1.2l0.1,0.7l0.2,0.8l0.1,0.4l0.2,0.2c0-0.2-0.1-0.3-0.1-0.4c0-0.1,0-0.2,0-0.2c-0.1-0.3-0.2-0.6-0.2-1
	c-0.1-0.3-0.2-0.6-0.2-1L3.4,34.2z M3.5,3.8V3.7c0.1,0,0.2-0.1,0.2-0.1c0.1,0,0.2-0.1,0.4-0.2c0,0,0.1,0,0.2-0.1
	c0,0,0.1-0.1,0.1-0.1s0.1,0,0.1,0.1C4.5,3.7,4.2,3.8,3.5,3.8z M4.5,36.1h0.1l0.1,0.2l0.1,0.2L5,36.8v0.3l0.2,1
	c-0.5-0.5-0.8-1.1-0.7-1.9V36.1z M5.5,19.1l-0.4-0.3L5,18.8H4.9c-0.3,0-0.4,0.2-0.4,0.5c0,0.4,0.1,0.5,0.4,0.5
	C5,19.8,5.2,19.6,5.5,19.1z M4.6,29.6l0.6,0.1c0.1,0,0.2-0.1,0.3-0.1c0.2,0,0.4,0,0.4,0.1C6,29.9,5.8,30,5.4,30.2c0,0-0.2,0-0.6-0.2
	L4.6,29.6z M5.2,30.6l0.6-0.2c-0.1,0.3-0.2,0.5-0.3,0.5c-0.2,0-0.3,0.1-0.3,0.1c-0.1,0-0.1,0-0.2,0l-0.2-0.3c-0.1,0-0.1-0.1-0.1-0.4
	L5.2,30.6z M5,20.4c-0.2,0-0.2,0.1-0.2,0.3c0,0.3,0.1,0.5,0.4,0.5c0.2,0,0.3-0.1,0.3-0.3c0,0,0-0.1-0.1-0.1L5,20.4z M5,34.7L5,34.8
	c0.1,0.1,0.2,0.1,0.2,0.1h0.2l0.2-0.2v-0.2l0.2,0.1c0,0,0.1,0,0.1,0.1c0,0.4-0.2,0.6-0.7,0.6c-0.4,0-0.5-0.2-0.5-0.5
	c0-0.1,0-0.1,0.1-0.1H5z M6.1,35.6l0.1,0.2L5.9,36l-0.2,0.1H5.6H5.3l-0.1-0.1l-0.3-0.4l0.2-0.1l0.4,0.1h0.2L6.1,35.6z M6,19.6
	c-0.3,0-0.5,0.2-0.5,0.5c0,0.3,0.2,0.5,0.5,0.5c0.3,0,0.5-0.1,0.5-0.4C6.5,19.8,6.4,19.6,6,19.6z M5.7,16.2c1,0.7,2.3,1,3.7,1h0.2
	c0.2,0,0.3,0,0.4-0.1l-0.1-0.5H9.8H9.8H9.2c-0.3,0.1-0.7,0.1-1,0c-0.4-0.2-0.8-0.2-1-0.2H6.5c-0.1,0-0.2-0.1-0.3-0.1
	C6.1,16.2,5.9,16.2,5.7,16.2L5.7,16.2z M6.1,21.1c-0.3,0-0.4,0.2-0.4,0.4c0,0.3,0.1,0.4,0.4,0.4c0.2,0,0.4-0.2,0.4-0.5
	C6.5,21.2,6.4,21.1,6.1,21.1L6.1,21.1z M6,18.3c0,0-0.1,0.1-0.1,0.1c0,0-0.1,0.1-0.1,0.1l-0.1,0.1c0,0.3,0.2,0.5,0.5,0.5
	c0.2,0,0.4-0.1,0.4-0.3C6.6,18.5,6.4,18.3,6,18.3L6,18.3z M5.9,16.9l0.4,0.3l1.6,0.8c0.5,0.2,0.8,0.8,0.8,1.6c0,1-0.4,1.5-1.3,1.4
	L7,20.9l-0.2,0.2c0.5,0.2,0.7,0.3,0.8,0.3c1,0,1.4-0.6,1.4-1.8c0-0.8-0.2-1.4-0.7-1.7c-0.1-0.1-0.3-0.2-0.6-0.3
	c-0.3-0.1-0.7-0.3-1.2-0.4C6.4,17,6.2,16.9,5.9,16.9z M6,25.7c0.1-0.3,0.2-0.5,0.2-0.6v-0.4c0-0.5,0-0.7,0.1-0.7
	c0.1,0,0.2,0.2,0.2,0.5v0.2l-0.1,0.6C6.4,25.6,6.3,25.7,6,25.7z M17.1,18.2l-0.3,0.4L16.3,19c-0.4,0.4-0.7,0.7-1.1,1
	c-0.4,0.3-0.8,0.5-1.2,0.7c-0.2,0-0.4,0.1-0.6,0.3l-1.4,0.6c-1.5,0.7-2.8,1.6-3.8,2.5l-0.5,0.4c-0.2,0.3-0.3,0.5-0.4,0.7
	c-0.1,0.2-0.2,0.3-0.2,0.4c-0.5,0.7-0.8,1.4-1,2.1l0.5,0.1L7,27.2c0.7-1.6,1.4-2.6,2.1-3.2l0.8-0.6c0.5-0.4,0.8-0.7,1-0.7l1.7-0.6
	c2.5-1,4.3-2.2,5.2-3.8L17.1,18.2z M6.5,41.5c0.6,0.2,1.1,0.5,1.7,1l-0.4,0.2l-0.1-0.1l-0.2-0.2l0.1,0.7l-0.4-0.4
	c-0.4-0.2-0.7-0.4-0.7-0.5c0,0,0.1-0.1,0.1-0.1c0,0,0-0.1,0.1-0.1c-0.2-0.1-0.3-0.2-0.3-0.3L6.5,41.5z M8.9,31.7l1.1-0.1
	c0,0-0.2-0.1-0.8-0.1c-0.4,0-0.9,0.2-1.3,0.5c-0.1,0.1-0.3,0.2-0.4,0.4c-0.2,0.2-0.3,0.4-0.5,0.5H7l-0.4,0.6l0.5-0.1l0.3-0.5
	l0.3-0.5C7.7,32.5,8.1,32.3,8.9,31.7z M6.9,19.6c0.1,0.4,0.2,0.7,0.4,0.7c0.2,0,0.2-0.1,0.2-0.3c0-0.3-0.2-0.5-0.5-0.5L6.9,19.6z
	 M8.7,25.2c-0.4,0.2-0.6,0.6-0.8,1.2l-0.7,1.7c-0.2,0.3-0.2,0.6-0.2,0.8c0,0.1,0,0.2,0.1,0.2c0.1,0,0.2-0.1,0.3-0.2l0.4-0.2
	c0,0-0.1-0.1-0.1-0.2c0-0.2,0.1-0.5,0.4-1l0.7-1C9,26,9.3,25.6,9.5,25.3c0.3-0.3,0.6-0.6,0.9-0.8c0.3-0.2,0.6-0.4,1-0.5
	c0.4-0.1,0.8-0.2,1.4-0.4c-0.1-0.6-0.3-0.8-0.5-0.8c-0.1,0-0.2,0.1-0.5,0.2L11,23.3C10.1,23.7,9.3,24.3,8.7,25.2z M7.6,29.6
	c0,0,0,0.5-0.2,1.5c0,0.1-0.1,0.2-0.1,0.3c-0.1,0.1-0.2,0.4-0.3,0.6v-0.7C6.9,31,7,30.8,7,30.8L7.6,29.6z M7.1,21.8L7.1,21.8L7,22
	c0,0.4,0.2,0.7,0.5,0.7c0.2,0,0.4-0.2,0.4-0.5C7.9,21.9,7.6,21.8,7.1,21.8z M7.7,38.5l0.1,0.3h0.1l0.2,0.3l0.2,0.2
	c0.1,0.1,0.2,0.2,0.3,0.3l-0.5-0.1L7.8,39l0.3,0.4L8,39.6L8,39.7l-0.2-0.4L7.3,39c0.1,0,0.2-0.1,0.2-0.1c0,0,0.1,0.1,0.2,0.2v-0.2
	c-0.2,0-0.2-0.1-0.2-0.1c0-0.2,0-0.2,0.1-0.2H7.7z M8.3,23.3l-0.6,0.7L8,23.7L8.3,23.3L8.3,23.3z M11,25c-0.5,0.2-1,0.5-1.4,0.9
	l-0.5,0.6l-0.7,1.1L8,28.4c0.1,0,0.2-0.1,0.4-0.1L8.5,28c0.3-0.6,0.8-1.3,1.7-2c0.4-0.4,0.8-0.6,1.3-0.6c0.3,0,0.6,0.1,0.9,0.2
	c0.3,0.4,0.4,0.7,0.4,1c0,0.6-0.3,0.9-0.9,0.9l-1.7,0.1c-0.5,0-0.7,0.2-0.6,0.7v0.5c0,0.2,0.2,0.3,0.5,0.4L10,28.8
	c0-0.5,0.2-0.8,0.8-0.9l1.6-0.1c0.9,0,1.3-0.5,1.3-1.5c0-0.8-0.4-1.3-1.1-1.5l-0.6-0.2l-0.2,0.1L11,25z M9.7,20.1
	c0,0,0.2-0.1,0.4-0.1c0.1,0,0.3,0.1,0.5,0.3l0.1,0.2c0,0.6-0.4,1.2-1.1,1.8c-0.2,0.1-0.3,0.2-0.4,0.4c-0.1,0.1-0.3,0.3-0.4,0.4
	c0.2-0.2,0.4-0.3,0.5-0.3c1.4-0.9,2-1.7,2-2.5c0-0.6-0.3-0.8-0.8-0.8C10,19.5,9.8,19.7,9.7,20.1z M9.4,2.8L8.9,3.1L8.7,2.9l0.1-0.2
	c0-0.1,0.1-0.2,0.2-0.2L9.4,2.8z M9.6,2.4c0,0,0.2-0.1,0.4-0.1c0.2,0,0.2,0.1,0.2,0.2c0,0.1-0.1,0.2-0.2,0.2c0.1,0,0-0.1-0.2-0.2
	L9.6,2.4z M12.3,8.8l-0.4,0.1l-1.1,0.4c-0.5,0.4-0.7,0.9-0.7,1.3c0,0.4,0.2,0.7,0.5,0.7h0.1L11,11h0.3c0.3,0.3,0.6,0.5,0.7,0.5
	c0.1,0,0.3-0.1,0.4-0.4l-0.3-0.1L12,10.7c-0.1-0.2-0.1-0.3-0.1-0.3c0-0.4,0.3-0.7,0.9-0.7c0.4,0,0.8,0.2,1.2,0.6l0.4,0.4l0.1,0.4
	l0.2,1l-0.3,1.6v0.4l0.2,0.5h0.1c0.3-0.6,0.4-1,0.4-1.3c0-0.2-0.1-0.4-0.2-0.7c-0.1-0.3-0.2-0.5-0.2-0.7c0-0.1,0.2-0.2,0.5-0.3
	C14.9,9.8,13.9,8.9,12.3,8.8z M11,2.4C11,2.5,11,2.6,11,2.7v0.1c-0.2,0-0.4-0.1-0.4-0.3V2.3L11,2.4z M11.9,2.5l-0.2,0.2
	c-0.1-0.1-0.2-0.2-0.3-0.3c0-0.1,0.1-0.1,0.2-0.1C11.7,2.3,11.8,2.4,11.9,2.5z M13.9,5.2l-0.1,0.3c-0.3,0.4-0.6,0.6-1,0.6
	c-0.8,0.6-1.3,1.4-1.4,2.4h0.5V8.1C11.9,7.8,12,7.5,12.5,7c0-0.1,0.1-0.1,0.1-0.1c0,0,0.1,0,0.1-0.1l1-0.5c0.3-0.2,0.5-0.4,0.5-0.7
	C14.2,5.5,14.1,5.3,13.9,5.2z M12.9,3.5L12.1,4l-0.1,0.1c0,0.3,0.1,0.4,0.4,0.4h0.1c0,0,0.1-0.1,0.1-0.1l0.2-0.2
	C12.9,4.1,13,4,13.1,4c0.5,0,1.5,0.4,3.1,1.2c-0.5-0.5-1.4-1-2.9-1.5C13.2,3.7,13.1,3.6,12.9,3.5z M17.3,26.6
	c-0.3,0.6-0.8,1-1.4,1.2c-0.5,0-0.9,0.2-1.4,0.7l-0.2,0.4l0.1-0.1l-0.8-0.2c-0.2,0-0.4-0.1-0.5-0.1c-0.1,0-0.3,0-0.3,0
	c-0.5,0-0.7,0.1-0.7,0.4c0,0.1,0.1,0.2,0.4,0.4l0.3,0.8l0.1,0.7L13,32c0,0.4,0.1,0.6,0.3,0.8l0.4-0.1v0.4c0,0.2,0.1,0.5,0.3,0.8
	l0.2,0.1L14,33.4l0.4-0.1l0.2,0.5c0.1,0.3,0.2,0.5,0.4,0.7l0.1,0.2l0.5,0.4c-0.5-1-0.8-1.8-0.8-2.4c0-0.4,0.1-0.8,0.4-1.1l0.2,0.2
	l-0.2,1c0,0.2,0.1,0.5,0.2,0.8c0.1,0.3,0.2,0.6,0.4,0.9c0.2,0.3,0.4,0.6,0.6,0.8c0.2,0.2,0.5,0.4,0.8,0.4l1.1,0.2l0.2,0.1l0.5-0.2
	c0-0.2-0.1-0.2-0.2-0.2h-0.4c-0.1,0.1-0.4,0-0.7-0.2l-0.4-0.1l-0.8-0.5l-0.2-0.4h0.2h0.1c0,0,0.2,0.2,0.6,0.4
	c0.2,0.2,0.6,0.3,1.4,0.4l-0.2-0.5l-0.6-0.2l-0.4-0.4c-0.1-0.4-0.1-0.6-0.1-0.7c0-0.5,0.3-0.8,0.8-0.8c0.2,0,0.5,0.1,0.8,0.2
	c0.2,0,0.4-0.2,0.4-0.4c0-0.4-0.3-0.8-0.9-1.2h-0.1l-0.8,0.2h0.2h-0.3v-0.2c0,0,0.1-0.2,0.4-0.4c0.5-0.4,0.7-1,0.7-1.9
	C18.3,28.2,18,27.4,17.3,26.6z M12.7,10.7l-0.4-0.4v0.2C12.3,10.5,12.4,10.6,12.7,10.7L12.7,10.7z M12.8,11.3l-0.1,0.1l-0.2,0.4
	l2,5.1l1,2.2l0.4-0.2L13.4,13l-0.2-0.8L12.8,11.3z M12.5,44.5l0.1-0.3l0.2-0.1H13l0.1,0.1c0,0.2-0.1,0.4-0.2,0.4l-0.1,0.2h-0.3
	L12.5,44.5z M15.8,20.8c-0.5,0.3-1,0.6-1.5,0.9c-0.5,0.3-1.1,0.6-1.6,0.8c0.2,0.2,0.3,0.5,0.5,0.8c0.2,0.3,0.3,0.7,0.5,1.2l0.3,0.8
	l0.8,1.7c0.2,0.4,0.3,0.5,0.5,0.5c0,0,0.2,0,0.6-0.1c0.4-0.1,0.6-0.2,0.6-0.2c0.1-0.2,0.2-0.5,0.3-0.7c0.1-0.3,0.2-0.5,0.4-0.5
	c0.1,0,0.3,0.1,0.5,0.4l0.2,0.3l0.3,0.5c0.3,0.5,0.4,1.2,0.4,2c0,0.2-0.1,0.6-0.2,0.9c-0.1,0.4-0.2,0.6-0.2,0.7
	c0.1,0.1,0.2,0.2,0.4,0.3c0.1,0.1,0.3,0.2,0.5,0.3c0.2,0.5,0.3,0.8,0.3,1c0,0.3-0.2,0.6-0.5,1l-0.2,0.1c-0.1,0-0.2-0.1-0.3-0.4
	l-0.4-0.1l-0.1,0.2l5.2,9.7c0.2,0.4,0.3,0.6,0.5,0.6c0.2,0,0.5-0.3,0.9-1l3.6-6.2L28,36.1l-0.5-0.3l-0.8-0.7
	c-0.1,0.2-0.2,0.4-0.2,0.6c-0.1,0.2-0.2,0.3-0.2,0.4c-0.5,1.1-0.9,1.8-1.1,2c-0.2,0.2-0.3,0.3-0.4,0.3c-0.1,0-0.1-0.1-0.2-0.1
	c-0.1,0-0.1-0.1-0.2-0.1L24,37.5l-1-1.7l-2.8-5.4l-0.8-1.7l-1.6-3.3L15.8,20.8z M13.4,44.5l0.2,0.2l-0.5,0.4L13.4,44.5z M31.2,2.2
	l-0.5,0.3h-0.9c-0.4,0-1,0.3-1.6,0.8c-0.8,0.6-1.3,1.2-1.3,1.9c0,0.3-0.1,0.5-0.4,0.5l-0.3-0.5l-0.2-0.5c0-0.2-0.1-0.2-0.2-0.2h-0.1
	c-0.2,0.1-0.4,0.2-0.5,0.3L25.1,5c-0.3,0.4-0.5,1-0.6,1.8c0,0.2,0,0.4-0.1,0.5l0.1,1.1l0.3,1.9c0,0.2,0.1,0.4,0.1,0.6
	c0,0.2,0,0.4,0,0.7c0,0.9-0.2,1.3-0.5,1.3c-0.2,0-0.3-0.4-0.4-1.1l-0.1-1.1l0.1-0.3v-0.1v-0.1l-0.1-0.5V8.2l-0.3-1.9l-0.4-0.8
	c-0.1-0.2-0.1-0.3-0.1-0.4c0-0.1-0.1-0.2-0.1-0.3c-0.1-0.1-0.2-0.2-0.4-0.4c-0.2-0.2-0.4-0.4-0.8-0.7l-0.3,0.8h-0.3l0.1-0.1
	c0,0-0.1-0.2-0.3-0.5l-0.3-0.5c-0.2-0.1-0.6-0.3-1.2-0.7l-0.8-0.5c-0.2,0.2-0.2,0.4-0.2,0.6c0,0.1,0.1,0.3,0.2,0.5
	C19,3.7,19,3.9,19.1,4.1c-1,0-1.7,0.4-2.3,1.2l-0.2,0.5L16.1,7c-0.2,0.7-0.7,1-1.3,1c-0.3,0-0.5-0.1-0.5-0.4l0.1-0.4
	c0,0-0.1-0.1-0.1-0.1l-0.1-0.1c-0.3,0-0.4,0.2-0.4,0.7c0,0.6,0.3,0.8,1,0.8c0.5,0,0.9-0.3,1.2-0.8l1.1-1.9c0.4-0.6,0.9-0.8,1.7-0.8
	c0.4,0,0.9,0.2,1.3,0.5l0.3,0.4l0.3,0.5l0.1,0.5l0.1,0.2L21.2,8c0.1,0.7,0.2,1.2,0.2,1.6v0.6c0,0.1,0,0.3,0,0.4s0,0.3-0.1,0.5v0.6
	l0.1,1.4l0.1,0.5l0.2,0.2l0.3,0.5c0.7,0.8,1.4,1.1,2,1.1c1,0,1.9-0.5,2.6-1.4c0.7-0.9,1.1-2.1,1.1-3.5l0.1-2.7
	c0-0.2,0.1-0.5,0.2-0.9c0.2-0.3,0.4-0.7,0.6-1c0.2-0.3,0.5-0.5,0.7-0.7S29.9,5,30.2,5h1.1l0.4-0.5L31.9,4l-0.7-0.4
	c0,0,0-0.2,0.1-0.5s0.2-0.5,0.2-0.6C31.5,2.4,31.4,2.2,31.2,2.2z M15.4,40.8l0.2,0.4c-0.2,0.3-0.4,0.5-0.4,0.4c-0.1,0-0.1-0.1,0-0.3
	v-0.2C15.2,40.9,15.2,40.8,15.4,40.8L15.4,40.8z M15.4,12.1l0.1,0.6c0.4,0.6,0.7,1,1.1,1.1l0.1,0.1l-0.7,0.4
	c-0.2,0.1-0.4,0.2-0.4,0.4c0,0.3,0.4,0.4,1.1,0.4c0.3,0,0.5-0.1,0.7-0.2l1.6-0.7c0,0,0.3-0.1,0.7-0.1l1.4,0.1
	C20.9,14,20.8,14,20.7,14h-0.2l-0.8-0.4l1,0.2l0.1-0.2c0-0.1-0.3-0.2-0.8-0.4c-0.6-0.2-1-0.3-1.4-0.3h-0.7l-1.5-0.4L15.4,12.1z
	 M15.5,30.8L15.5,30.8c0.2,0,0.3,0.1,0.3,0.2c0,0.3,0,0.4-0.1,0.4c-0.2,0-0.3-0.2-0.4-0.5L15.5,30.8z M18.4,14.9
	c-0.3,0.1-0.6,0.3-0.7,0.5l0.3,0.2l0.2,0.1l0.1,0.1l-0.2,0.3l-0.6,0.1L17,16.3c-0.3,0.1-0.5,0.1-0.6,0.1c-0.4,0-0.7,0-0.8-0.1
	l0.1,0.2c0.2,0.3,0.5,0.6,1,0.8c0.5,0.3,1,0.4,1.4,0.4H19v0.3l-0.2,0.5l0.5,0.1h0.1c0.4,0,0.8-0.3,1-0.9l0.5-1.3
	c0.1-0.2,0.4-0.6,1-1l-0.2-0.1c-0.4,0-0.9,0.3-1.7,0.9l-0.2-0.2l0.5-0.4l0.4-0.2l0.5-0.2l0.7-0.2l-0.2-0.2c-0.6-0.2-1.2-0.4-1.9-0.4
	C19.3,14.5,18.9,14.6,18.4,14.9z M16.3,30.2c0,0.1-0.1,0.3-0.1,0.4v0.1c-0.2,0-0.4-0.1-0.4-0.4c0-0.1,0.1-0.2,0.2-0.2L16.3,30.2z
	 M16.6,8.6l0.1,0.2c-0.2,0-0.5,0.4-0.7,1.1v0.4c0.3,0.6,0.6,0.8,0.7,0.8c0.2,0,0.4-0.1,0.7-0.2c-0.6-0.2-0.9-0.5-0.9-1
	s0.3-0.8,0.8-0.8c0.2,0,0.6,0.2,1,0.6c0.2,0.4,0.3,0.8,0.4,1.3c0.1,0.5,0.2,1,0.2,1.6c0.1-0.4,0.2-0.6,0.2-0.8
	c0-2.4-0.7-3.6-2.2-3.6c-0.3,0-0.4,0.1-0.4,0.2C16.5,8.3,16.5,8.4,16.6,8.6z M16.2,2.9l0.1,0.2c0.1,0.2,0.3,0.3,0.4,0.5
	c0.2,0.2,0.4,0.3,0.7,0.5V4V3.8c0,0-0.2-0.2-0.4-0.4c-0.2-0.2-0.4-0.4-0.4-0.7c0-0.4,0.2-0.5,0.5-0.5c0,0,0.1,0,0.5,0.1V2.3
	c0-0.4-0.3-0.6-0.8-0.6c-0.6,0-0.9,0.3-0.8,0.8L16.2,2.9z M16.3,20.4c-0.1,0.1-0.2,0.2-0.2,0.3c0,0,0,0.1,0.1,0.3l0.1,0.3l0.7,1.6
	c0.1,0.2,0.2,0.3,0.2,0.5c0.1,0.2,0.1,0.3,0.2,0.5L18,25l0.3,0.6l0.2,0.4l0.1,0.2l1.1,2.4l0.7,1.3l0.4,0.7l0.6,1.3l0.2,0.4l0.3,0.7
	l0.5,0.8c0.1,0.1,0.2,0.3,0.3,0.5c0.1,0.2,0.2,0.5,0.4,0.8l0.4,0.8l0.1,0.1l0.9,1.7l0.3,0.4l0.2-0.4l-0.1-0.1l-3.4-6.4L16.3,20.4z
	 M16.7,29.7l-0.1,0.5l-0.3-0.4L16.7,29.7z M18.7,38.3c-0.3,0.3-0.6,0.4-0.8,0.4c-0.6,0-0.8-0.2-0.8-0.7c0-0.8,0.7-1.3,2-1.5l0.1-0.2
	h-0.1h-0.1h-0.1h-0.1c-0.5,0-1,0.2-1.6,0.5c-0.6,0.3-0.8,0.7-0.8,1.3c0,0.9,0.4,1.4,1.3,1.4C18.2,39.5,18.5,39.1,18.7,38.3z
	 M16.3,40.9l0.2-0.1l-0.1,0.5v0.2c0,0-0.1-0.1-0.2-0.1h0.2l-0.2-0.1V40.9z M16.8,40.9H17c0.1,0.1,0.2,0.2,0.2,0.2
	c0,0-0.1,0.1-0.1,0.1c0,0.1-0.1,0.2-0.2,0.3v0.1L16.8,40.9z M17,28.7l0.2,0.3l-0.4,0.4v-0.3L17,28.7z M17.2,42.5
	c0.4,0.1,0.5,0.2,0.5,0.4c0,0.1-0.1,0.2-0.3,0.2c0,0-0.1-0.1-0.2-0.3L17.2,42.5z M21.4,19.5c0,0.1,0.1,0.3,0.1,0.5s0,0.4-0.1,0.5
	c-0.1,0.2-0.2,0.3-0.3,0.4c-0.1,0.1-0.2,0.2-0.4,0.4c-0.6,0.3-1.2,0.4-1.9,0.4h-0.5l-0.7,0.1l0.7,1.6c0.2,0.2,0.5,0.3,0.9,0.4
	c0.2,0.1,0.5,0.2,0.9,0.5l0.2,0.1l0.5,0.7l0.3,0.5v0.3c0.1,0.4-0.1,0.7-0.4,0.7c-0.4,0-0.7-0.4-0.8-1.2l-0.1-0.1l0.1,0.5l-0.1,0.5
	l0.1,0.6c0,0.4,0.3,0.5,0.7,0.5c0.4,0,0.6-0.1,0.7-0.2l0.1-0.1v-1.1l0.5,0.1c0.1,0,0.1-0.1,0.1-0.2l-0.1-0.3l-0.1-0.5l-0.5-0.5
	l-0.1-0.1h0.6c-0.3-0.8-0.8-1.2-1.6-1.2h-0.1H20c-0.1,0-0.4,0.1-0.8,0.2l-0.1,0.1c-0.2,0-0.3-0.1-0.3-0.4c0-0.4,0.2-0.6,0.7-0.5
	l1.4,0.3h0.2c0.2,0,0.4-0.1,0.8-0.2c0.3-0.2,0.4-0.3,0.4-0.5c0-0.1-0.3-0.2-0.8-0.2v-0.2c0.4-0.4,0.5-0.7,0.5-1
	C22.2,20.1,21.9,19.7,21.4,19.5z M18.3,7l0.3,0.7l0.1,0.3L19,8.6l0.1,0.3c0.2,0.5,0.3,1.1,0.3,1.6c0.1,0.6,0.1,1.2,0.2,1.8
	c0,0.1-0.1,0.2-0.1,0.4c0,0.1,0.1,0.1,0.4,0.1H20l0.1-1c0-1.7-0.4-3.5-1.3-5.4c-0.2-0.4-0.4-0.5-0.5-0.5c-0.2,0-0.4,0.1-0.4,0.3
	C17.9,6.4,18,6.7,18.3,7z M17.9,20c0.1,0.4,0.4,0.7,1.1,1l0.2,0.1l0.2-0.1l0.1-0.1l0.6-0.5l0.5-0.6l0.5-0.2
	c-0.1-0.1-0.1-0.1-0.2-0.1c-0.2,0-0.4,0.1-0.4,0.2L20,20c-0.1,0.2-0.4,0.2-0.8,0.2c-0.2,0-0.4,0-0.5-0.1l-0.4-0.7h-0.1
	C18.1,19.5,18,19.7,17.9,20z M18.7,22.2v0.2l-0.1,0.2c0,0.4,0,0.6,0.1,0.6c-0.3,0-0.5-0.2-0.5-0.5c0-0.4,0.1-0.5,0.3-0.5H18.7z
	 M21.2,23.6L21,23.6l-0.3,0.1c-0.2-0.1-0.3-0.2-0.4-0.2H20l-0.7-0.1c0-0.1,0.3-0.2,0.9-0.2L21.2,23.6z M19.9,2.2
	c0,0.3,0.1,0.4,0.4,0.4c0.2,0,0.4-0.1,0.4-0.4c0-0.2-0.2-0.2-0.5-0.2C20.1,2,20,2.1,19.9,2.2z M21.2,2.9c0.1,0.3,0.2,0.5,0.4,0.5
	c0.4,0,0.7-0.2,0.7-0.7c0-0.4-0.2-0.5-0.5-0.5C21.4,2.2,21.2,2.4,21.2,2.9z M26,15.8v0.1l-0.1,0.3c-0.2-0.1-0.4-0.3-0.5-0.7
	l-0.1,0.1l0.1,0.4v0.2l0.1,0.4h-0.1c-0.2-0.4-0.3-0.7-0.4-0.8c-0.1,0-0.2-0.1-0.2-0.1V16c0,0.1,0.1,0.2,0.2,0.4
	c0.1,0.2,0.1,0.4,0.2,0.6v0.2v0.4c0,0.1,0,0.2,0,0.4c0,0.2,0,0.3-0.1,0.5L25,18.6l-0.2-0.1l-0.1-0.1v-0.9c0-0.5-0.1-1-0.3-1.6
	l-0.3-0.2c0,0.1,0.1,0.3,0.1,0.6V17l-0.2-0.1c-0.1-0.4-0.3-0.8-0.6-1.1l0.4-0.1l-0.6-0.1l-0.5-0.1c0,0-0.1-0.1-0.3-0.1
	c-0.7,0-1.1,0.7-1.1,2l0.2,0.5c0.1,0.1,0.2,0.2,0.2,0.2c0.3-0.2,0.5-0.3,0.5-0.3c0.1,0,0.2,0,0.2,0.1c0,0,0,0.1-0.1,0.4l0.2,0.7
	l0.2,0.2l0.8,0.5l0.4,0.4l0.1,0.1l0.1,0.3l0.1,0.5c1.3-0.3,1.9-1.1,1.9-2.3c0-0.2,0-0.3-0.1-0.4L26,17.9l0.4,0.3l0.2,0.2l0.3,0.2
	c0.1-0.3,0.2-0.5,0.2-0.7v-0.1c-0.1-1-0.3-1.7-0.7-2.2c-0.2-0.2-0.3-0.3-0.4-0.3c-0.1,0-0.2,0.1-0.2,0.2
	C25.8,15.6,25.9,15.7,26,15.8z M22.6,29.2l0.2,0.4L22.4,30c-0.1,0.2-0.2,0.3-0.2,0.2l-0.2-0.1l-0.4-0.5l-0.1-0.1v0.7
	c0.2,0.4,0.5,0.7,0.8,0.7c0.4,0,0.5-0.3,0.5-1v-0.1v-0.4C22.7,29.3,22.7,29.2,22.6,29.2z M21.9,11.3l0.1,1l0.2,0.5l1.1,1.7l-1.3-1.1
	c-0.2-0.6-0.4-1.1-0.4-1.6c0-0.3,0.1-0.5,0.2-0.5H21.9z M27,26.5c-0.1,0.2-0.2,0.4-0.2,0.5c0,0.1,0,0.2,0.1,0.4
	c0.1,0.2,0.1,0.3,0.1,0.4c0,0.2-0.1,0.3-0.4,0.5c-0.4,0.2-1,0.4-1.7,0.4c-0.5,0-0.8,0-0.8-0.1l-1-0.2l-0.4-0.1L22.5,28l-0.2-0.1
	c-0.1,0-0.1-0.2-0.2-0.4c0-0.1,0-0.2,0.1-0.3c0.1-0.1,0.1-0.2,0.1-0.3c0-0.1-0.1-0.2-0.2-0.2c-0.1,0-0.2,0-0.2,0.1
	c-0.2,0.3-0.4,0.7-0.4,1.1c0.5,0.8,1.5,1.3,2.9,1.3c2.4,0,3.6-0.5,3.6-1.6C28,27.1,27.7,26.8,27,26.5z M23.2,22.8L23.2,22.8
	c0,0.5-0.2,0.8-0.5,0.8c-0.2,0-0.4-0.1-0.7-0.2c0.1,0.4,0.3,0.6,0.5,0.8c0.1,0,0.2,0.1,0.4,0.1c0.5,0,0.7-0.3,0.7-0.8
	C23.6,23.3,23.5,23,23.2,22.8z M22.3,25.3v0.8l0.2,0.4l0.2,0.5c0.1,0.2,0.2,0.5,0.3,0.7c0.1,0.2,0.3,0.4,0.6,0.4
	C23.6,27,23.1,26.1,22.3,25.3z M22.9,1.9L22.9,1.9c-0.3,0-0.5,0.1-0.5,0.2c0,0.2,0.2,0.2,0.6,0.2c0.3,0,0.5-0.1,0.5-0.2V2l-0.1-0.1
	L22.9,1.9z M23,2.9c-0.3,0-0.5,0.1-0.5,0.3c0,0.4,0.2,0.6,0.5,0.6c0.4,0,0.6-0.2,0.6-0.5c0-0.3-0.2-0.4-0.5-0.4H23z M24.1,44.5
	L24,44.8c-0.1,0.2-0.2,0.3-0.4,0.3l-1,0.3c-0.1,0.1-0.1,0.2-0.1,0.2c0,0.2,0.2,0.4,0.6,0.4h0.2l0.7-0.4c0.1,0,0.2-0.1,0.2-0.1
	l0.3-0.7c0.1-0.2,0.2-0.3,0.2-0.4l-0.2-0.2l-0.1-0.1C24.2,44.3,24.1,44.3,24.1,44.5z M22.7,5.2L23,5.3l0.2,0.4l0.1,0.2l0.2,0.3
	l0.4,1.3l0.1,1.4V9c-0.1,0-0.2-0.1-0.3-0.1V8.2l-0.2-0.8L23,5.8L22.7,5.2z M23.3,29.4l-0.1,1.9c-0.2,0.4-0.3,0.7-0.4,1.1l0.1,0.4
	l0.1,0.1l0.1,0.1l0.3-0.5c0.3-0.9,0.5-1.7,0.5-2.4c0-0.4-0.1-0.6-0.2-0.5H23.3z M23.5,26c-0.1,0-0.1,0.1-0.1,0.2
	c0,0.1,0.1,0.2,0.2,0.2c0.1,0,0.2-0.1,0.2-0.2C23.8,26.1,23.7,26,23.5,26L23.5,26z M24.3,3.8L24.3,3.8l-0.2-0.1
	c-0.4,0-0.5,0.1-0.5,0.5s0.2,0.6,0.6,0.6c0.4,0,0.7-0.2,0.7-0.6C24.8,4,24.7,3.9,24.3,3.8z M28.4,36.5l-0.7,1.3L24.5,43l-0.7,0.8
	c0.2,0.1,0.3,0.2,0.4,0.2c0.1,0,0.5-0.5,1.1-1.4l0.4-0.5l0.8-1.5l2-3.4c0-0.1,0.1-0.2,0.1-0.4l-0.1-0.2L28.4,36.5z M24.2,2
	c-0.2,0-0.4,0.1-0.4,0.4c0,0.4,0.2,0.7,0.5,0.7c0.3,0,0.5-0.2,0.5-0.5C24.9,2.2,24.7,2,24.2,2z M24.2,13.8l-0.2-0.1
	c-0.1,0-0.2-0.1-0.2-0.2c0-0.1,0-0.1,0.1-0.2l0.8,0.1l0.7-0.4v0.2c0,0.4-0.3,0.6-0.8,0.5H24.2z M25.4,14c0.2,0.1,0,0.2-0.7,0.4
	c-0.3,0.2-0.5,0.1-0.6-0.2L23.9,14l0.8,0.1l0.3-0.1H25.4z M23.9,21.7l0.2,6.3c0,0.2,0.2,0.2,0.5,0.2c0.2,0,0.3,0,0.3-0.1v-6.5
	l-0.2-0.1l-0.4,0.2L23.9,21.7z M24.1,5.8l0.2,0.1V5.7c0-0.3,0-0.4-0.2-0.4C24,5.3,24,5.4,24,5.5C24,5.6,24,5.7,24.1,5.8z M24.5,29.5
	L24.4,36l0.5,0.8l0.1-0.4L25,29.5L24.5,29.5z M25.5,5.2L25.2,6L25,6.8l0.3-0.5l0.2,0.1V7l-0.1,0.6L25.6,8l0.2,1.6l-0.4-1
	c-0.1-0.2-0.2-0.4-0.2-0.7c-0.1-0.3-0.1-0.6-0.2-1v1.7l0.1,0.2l0.1,0.2H25l-0.3-0.5l0.1-0.6l-0.1-1.1C24.7,6.1,24.9,5.7,25.5,5.2z
	 M25.7,3.1c-0.3,0-0.6,0.1-0.7,0.4v0.1c0,0.2,0.2,0.3,0.6,0.3c0.4,0,0.7-0.2,0.7-0.5C26.3,3.2,26.1,3.1,25.7,3.1z M25.3,2.2
	c0,0.2,0.1,0.4,0.4,0.4c0.3,0,0.5-0.1,0.5-0.4c0-0.1-0.1-0.2-0.3-0.2C25.4,1.9,25.3,2,25.3,2.2z M25.3,24.1c0.1,0.4,0.3,0.5,0.5,0.5
	c0.2,0,0.4-0.1,0.7-0.2l0.2-0.4l-0.9,0.1c-0.1,0-0.2-0.1-0.2-0.4s-0.1-0.4-0.1-0.4l-0.1,0.1L25.3,24.1z M25.5,25.9l-0.1,0.4l0.3-0.2
	L25.5,25.9z M25.7,29.4h-0.1c-0.1,0-0.2,0.1-0.2,0.2c0,0.1,0,0.3,0,0.5c0,0.2,0,0.5,0.1,0.8c0,0.5,0.4,1.3,1.1,2.3v0.1l0.3,0.4v0.1
	l0.5,0.7l0.2,0.3c1.1,1,2.5,1.5,4.3,1.5c0.6,0,1.5-0.1,2.5-0.4l1-0.6c-0.2-0.3-0.4-0.5-0.5-0.5h-0.2L34.5,35
	c-0.9,0.4-1.8,0.6-2.6,0.6c-0.8,0-1.7-0.2-2.8-0.7l-0.2-0.1l-0.5-0.5l-0.2-0.1L27.9,34c-0.1-0.1-0.2-0.3-0.3-0.4
	c-0.1-0.2-0.3-0.4-0.4-0.6l-0.3-0.4c-0.4-0.5-0.7-1.1-0.7-1.8L26,30L26,29.4H25.7z M27.5,24.2l-0.5,0.6c-0.1,0.1-0.2,0.3-0.4,0.4
	c-0.3,0.4-0.5,0.7-0.6,1l-0.5,1.9h0.4c0.2,0,0.2-0.1,0.2-0.2v-0.2c0-0.2,0.1-0.5,0.2-0.8l0.4-0.8l0.8-1.2V24.2z M25.9,32.5l0.3,1
	l0.2,0.3l0.8,1.1l0.5,0.6l0.9,0.6l0.9,0.7l0.4,0.4c0.4,0.4,0.6,0.8,0.5,1.2v0.4l-0.5,0.5c-0.6-0.1-0.8-0.3-0.8-0.8l0.1-0.4l-0.4,0.2
	c0,0.2-0.1,0.3-0.1,0.4c0,0.1,0,0.2,0,0.2c0,0.2,0.1,0.4,0.4,0.7c0.3,0.3,0.5,0.5,0.8,0.5c0.5,0,0.9-0.4,1.2-1.2l0.3,0.1l0.1,0.1
	c0-0.2,0.1-0.4,0.1-0.5c0-0.1,0-0.2,0-0.2c0-0.4-0.1-0.7-0.4-1.1l-1.1-1l-1-0.5l-0.7-0.4L27.7,35l-0.1-0.1L25.9,32.5z M27.8,19.1
	v0.2c0,0.4-0.1,0.8-0.4,1c-0.3,0.2-0.6,0.4-0.9,0.6c-0.2,0.2-0.4,0.6-0.5,1l-0.1,0.2c0,0.1,0.1,0.2,0.2,0.4c0.2,0.2,0.4,0.4,0.7,0.4
	l-0.2,0.6l0.2,0.1l0.6,0.1c0.2,0,0.4-0.1,0.6-0.2l0.7-0.7c0.1-0.1,0.3-0.2,0.4-0.2c0.3,0,0.4,0.1,0.4,0.4s-0.3,0.5-0.9,0.7
	c-0.4,0.2-0.6,0.5-0.7,0.9l0.4,0.1c-0.1,0.4-0.2,0.7-0.2,0.8c0,0.6,0.4,0.9,1.1,1c-0.2-0.4-0.4-0.7-0.4-0.9c0-0.5,0.3-0.9,0.8-1.2
	l0.9-0.7c0.1,0,0.2-0.2,0.2-0.4v-0.5l1.6-0.4l0.2-0.5L31,22.1l-0.8,0.1c0.1-0.2,0.2-0.3,0.2-0.4c0-0.3-0.2-0.4-0.7-0.4
	c-0.3,0-0.6,0.2-1.1,0.5c-0.5,0.4-0.9,0.6-1.1,0.6c-0.6,0-0.8-0.3-0.8-0.8c0-0.4,0.2-0.7,0.5-0.8l0.8-0.2c0.3-0.1,0.5-0.4,0.5-0.9
	C28.4,19.6,28.2,19.4,27.8,19.1z M26.7,11l0.1,0.9h0.2v-0.6l0.2-0.1c0,0.1,0.1,0.3,0.1,0.6c0,0.6-0.3,1.3-0.8,2.2
	c-0.1,0-0.2-0.1-0.2-0.2c0,0,0.1-0.2,0.2-0.5c0.2-0.3,0.3-0.5,0.3-0.7l0.1-0.5l-0.1,0.1c0,0.6-0.2,0.9-0.5,1c0,0-0.1-0.1-0.1-0.2
	c0,0,0.1-0.2,0.2-0.6c0.1-0.3,0.2-0.7,0.2-1.2L26.7,11z M44.9,23c0,0.1,0.1,0.3,0.1,0.6c0,0.2-0.1,0.5-0.2,0.9
	c-0.3,0.8-0.4,1.5-0.4,2.2c0,0.3,0.1,0.6,0.2,1l0.4,0.6c0.2,0.2,0.4,0.4,0.6,0.4c0.4,0,0.7-0.3,0.7-1c0-0.2,0-0.4-0.1-0.4L45.8,27
	l-0.2-0.7l-0.1,0.5l0.1,0.3c0.1,0.2,0.2,0.4,0.2,0.5c0,0.1-0.1,0.2-0.2,0.2L45.4,28c-0.6-0.1-0.8-0.5-0.8-1.3c0-0.2,0-0.4,0-0.6
	c0-0.2,0-0.4,0.1-0.6c0.1-0.3,0.4-1.1,0.9-2.3c0,0,0.1-0.1,0.1-0.2c0-0.4-0.2-0.7-0.7-1L43.8,22c-0.1,0.2-0.2,0.3-0.3,0.4
	c-0.1,0.1-0.2,0.2-0.3,0.4l-0.4-0.1l-0.1-0.1l-0.1,0.1c-0.2,0.3-0.4,0.7-0.4,1.2c0,0.2,0,0.3,0,0.5c0,0.2,0,0.3,0.1,0.5l0.2,0.7
	l-0.3,0.1l-0.2-0.1c-0.3,0.4-0.5,0.9-0.5,1.5c0,0.5,0.1,1.1,0.4,1.7l0.2,0.4l0.4,0.7l0.2,0.3v0.2c0.3,0.3,0.4,0.7,0.4,1.3
	c-0.2,0.5-0.4,0.8-0.7,0.8c-0.1,0-0.2-0.1-0.2-0.2l0.1-1.2L42,30.5c-0.2-0.3-0.4-0.6-0.6-0.8c-0.3-0.2-0.6-0.5-0.9-0.8L40,28.3
	l-0.2,0.1c-0.1,0.2-0.2,0.4-0.2,0.6l0.1,0.4c-0.1,0.1-0.1,0.2-0.2,0.2c-0.1-0.1-0.2-0.1-0.3-0.2l-0.4-0.1l-0.1-0.1l-0.4-0.1l0.2,0.4
	c0.2,0.5,0.2,1,0.2,1.4V31v0.9c0.2,0.2,0.3,0.3,0.6,0.5c0.2,0.2,0.5,0.4,0.8,0.7l0.2,0.3c0.3,0.8,0.5,1.4,0.5,1.8
	c0,0.7-0.2,1.4-0.7,2l-1.1,1.6l-1.6,1.2l-0.7,0.3c-0.3,0.2-0.6,0.3-0.8,0.4c-0.2,0.1-0.4,0.2-0.5,0.2l-1.2,0.3
	c-0.4,0.1-0.7,0.2-0.9,0.2c-0.2,0-0.3-0.2-0.3-0.5c0.2-0.1,0.3-0.1,0.4-0.1c0.1,0,0.2,0,0.3-0.1c1-0.2,1.6-0.5,1.7-0.8l0.2-0.7
	l-0.2,0.1l-0.5,0.1v-0.2c0.4-0.6,0.7-1.1,0.8-1.6l-0.1-0.7c0-0.1-0.1-0.2-0.3-0.4c-0.1,0-0.3,0.1-0.4,0.4l-0.8-0.5
	c-0.3-0.2-0.6-0.2-1-0.2c-0.2,0-0.6,0.1-1,0.4c-0.3,0.4-0.4,0.7-0.4,1c0,0.5,0.3,0.8,1,0.8c-0.2-0.4-0.3-0.6-0.4-0.7
	c0-0.6,0.3-1,0.9-1c0.1,0,0.4,0.1,0.8,0.3l0.2,0.6c-0.1,0.5-0.3,0.9-0.8,1.4h-0.1c-0.1,0.1-0.2,0.1-0.2,0.2c-0.1,0-0.2,0-0.2,0.1
	c-0.2,0.1-0.4,0.2-0.7,0.2c-0.3,0.1-0.5,0.1-0.8,0.2c-0.3,0.2-0.5,0.4-0.8,0.6c-0.2,0.2-0.3,0.5-0.3,0.7v0.5
	c0.3,0.6,0.8,0.9,1.6,0.9c0.1,0,0.3,0,0.7-0.1l0.5-0.1l0.8-0.1v0.1L33.3,43l-0.7,0.1l-0.1,0.5h-0.4l-0.6-0.1l-0.1-0.4v-0.4l-0.5-0.2
	l-0.1-0.2l-0.2-0.1h-0.1c-0.2,0-0.3,0.2-0.2,0.5v0.4l0.1,0.1c0-0.1-0.1-0.2-0.1-0.5c0-0.1,0.2-0.2,0.5-0.3l-0.2,1h-0.7l-1-0.3
	L28.3,43l-0.2-0.4c-0.3-0.4-0.4-0.7-0.4-0.9c0-0.4,0.2-0.7,0.5-0.7c0.2,0,0.5,0.1,0.8,0.3l0.1,0.7c0.2-0.2,0.4-0.3,0.4-0.5
	c0-1-0.4-1.5-1.3-1.5c-1,0-1.4,0.5-1.4,1.6c0,1.6,1.3,2.5,3.9,2.7H31c0.2,0,0.4,0,0.5,0.1l0.1,0.2h-0.3l-1.3-0.1l-0.5-0.1
	c0,0-0.4,0.1-1.1,0.1l-0.7,0.1c0.3-0.2,0.6-0.4,1-0.4L28,43.9c-0.8,0-1.4,0.4-1.9,1.1l1.8-0.1c1.4,0,2.8,0.3,4.1,1l0.1-0.5l2.9-0.2
	c0.2,0,0.3-0.1,0.4-0.1c0.1,0,0.2,0,0.2,0c0.5-0.1,0.9-0.2,1.2-0.2c0.3-0.1,0.5-0.1,0.7-0.2l1.9-0.7c0.7-0.3,1.4-0.4,2.2-0.4
	c0.6,0,1.2,0.1,1.9,0.4c0.2,0.3,0.4,0.6,0.4,0.7c0,0.3-0.3,0.5-0.8,0.5c-0.2,0-0.4-0.1-0.6-0.2l-0.3-0.2l-0.2-0.1
	c-0.3-0.4-0.6-0.7-0.8-0.7c0,0-0.1,0-0.5,0.1l0.4,0.7c0.9,0.8,1.6,1.1,2,1.1c0.3,0,0.8-0.2,1.3-0.5c0-0.3,0.2-0.6,0.4-0.7l0.6,0.5
	h0.2c0-0.1,0.1-0.3,0.1-0.5c0-0.2-0.1-0.5-0.3-0.8c-0.2-0.4-0.5-0.7-0.8-0.9v-0.1l0.1-0.2c0.4-0.3,0.7-0.5,0.7-0.5
	c0-0.1-0.1-0.2-0.4-0.4L44,41.2h-0.5c0,0-0.1,0-0.4,0.1l-0.6,0.2l-0.4,0.3l-0.2-0.1v-0.3c0-0.2,0-0.3-0.1-0.4
	c-0.3-0.1-0.5-0.1-0.4-0.1c-0.1,0-0.3,0-0.4,0.1c-0.2,0-0.3,0.2-0.3,0.4l0.4,0.1L41,41.7l-0.6,0.2l0.2,0.1l-0.4,0.2l-0.5-0.2
	c-0.3,0.3-0.4,0.5-0.5,0.5c-0.9,0.7-1.6,1-2,1c-0.2,0-0.4-0.1-0.4-0.3c0-0.2,1-0.8,3-1.8c0.1,0,0.2-0.1,0.3-0.3
	c0.1-0.2,0.3-0.3,0.4-0.5c0.2-0.2,0.3-0.3,0.5-0.5c0.2-0.1,0.3-0.2,0.4-0.2c0,0,0.1,0.1,0.2,0.1l-0.5,0.7h0.3l0.7-0.7l0.6-0.8
	c0.8-1.1,1.4-2.4,1.6-3.7l0.1-0.4l0.1-1.1l0.1-0.5v-0.4c0-1.4-0.2-2.8-0.6-4.2l-0.7-2.4c-0.1-0.4-0.2-0.8-0.2-1.3
	c0-1.4,0.3-2.1,1-2.1C44.5,22.9,44.7,22.9,44.9,23z M26.7,31.1l0.1,0.1c0.3,0.3,0.5,0.4,0.7,0.4c0.4,0,0.7-0.2,0.7-0.5
	c0-0.2,0-0.3-0.1-0.4c-0.2,0.2-0.4,0.4-0.6,0.4c-0.5,0-0.7-0.2-0.8-0.7c-0.1-0.7-0.2-1.1-0.2-1.1c-0.1,0-0.2,0.2-0.2,0.5
	c0,0.3,0,0.6,0.1,0.8C26.5,30.7,26.6,30.9,26.7,31.1z M26.6,3.7l0.5-0.1c0.2-0.3,0.2-0.5,0.2-0.8c0-0.3-0.2-0.5-0.5-0.5
	c-0.2,0-0.3,0.1-0.3,0.2c0,0,0,0.1,0.1,0.4V3.7z M28.4,14L27.8,14v0.3l-0.7-0.1l-0.1,0.2l1.3,0.3l0.1,0.2l-0.9-0.2l-0.3-0.1h-0.6V15
	h0.1c0.3-0.1,0.5,0,0.5,0.2c0,0.1-0.1,0.1-0.2,0.1l-0.2-0.1c0.2,0.3,0.3,0.5,0.3,0.7c0.1,0.2,0.1,0.3,0.1,0.4l0.3,1.3l0.2,0.1
	l0.2,0.4c0.1,0.2,0.5,0.3,1.1,0.3c0.8,0,1.2-0.2,1.2-0.7c0,0,0-0.2-0.1-0.5c0.3,0,0.6,0.1,0.7,0.1c0.2,0,0.3,0,0.4,0
	c0.9,0,1.5-0.3,1.7-1c-0.7,0-1.5-0.2-2.2-0.7l-0.4-0.2l-0.2-0.3l0.1-0.2c0.2-0.1,0.3-0.2,0.3-0.3c-0.1-0.1-0.2-0.2-0.4-0.2l-0.6-0.3
	h-0.2L28.4,14z M27.8,2.6c0.4,0,0.5-0.2,0.5-0.4S28.2,2,28,2c-0.2,0-0.3,0.1-0.3,0.2C27.7,2.3,27.7,2.5,27.8,2.6z M32.7,10.4
	L32,11.2l-0.4,0.2c-0.2,0.2-0.5,0.4-0.7,0.5c-0.3,0.1-0.6,0.2-1.1,0.5l-0.4,0.1c-0.7,0.2-1.2,0.5-1.7,1l1.5-0.5l-0.1,0.1l-0.8,0.5
	l0.7,0.1c0.3,0.1,0.5,0.1,0.7,0.2l0.7,0.3c0,0,0.2,0.1,0.4,0.1c0.4,0,0.8-0.3,1.4-0.9c0.3-0.3,0.4-0.5,0.4-0.6
	c-0.1-0.1-0.2-0.1-0.3-0.1L32,12.7v-0.2c0.5-0.5,0.8-1,0.8-1.3c0-0.1,0-0.2,0-0.3C32.8,10.7,32.7,10.6,32.7,10.4z M27.8,33.3
	l0.5,0.5c0.3,0.4,0.5,0.6,0.7,0.6l0.1-0.1l0.4-0.8l2.5-5.2c0.3-0.7,0.7-1.5,1.2-2.5c0.5-1,1.1-2.2,1.7-3.5l1-2.2l1.7-4.3l-0.4-0.1
	c-0.2-0.1-0.4-0.1-0.6-0.2c-0.2,0-0.5-0.1-0.8-0.1c-3.2,8-5.7,13.5-7.6,16.5c-0.2,0.4-0.4,0.7-0.4,0.9
	C27.8,33.1,27.8,33.2,27.8,33.3z M29.2,27l0.1,0.6c0,0.2-0.1,0.4-0.2,0.7l-0.9,0.4c0.2,0,0.3,0.1,0.4,0.1c0.1,0,0.2,0,0.3,0
	c0.3,0,0.6-0.2,0.7-0.5c0.2-0.4,0.2-0.6,0.2-0.8C29.8,27.3,29.6,27.1,29.2,27z M28.2,11.3l0.6-0.1c0.2,0,0.5,0.2,0.7,0.5l0.2,0.3
	c0.1,0,0.2-0.1,0.2-0.2c0-0.5-0.2-0.8-0.7-1.1c-0.1-0.1-0.2-0.1-0.4-0.1C28.4,10.6,28.2,10.8,28.2,11.3z M32.9,5.4l-0.2,0.2
	l-0.2,0.4l0.1,0.6l-0.1,0.2l-0.2,0.4c-0.2,0.2-0.5,0.3-0.9,0.2l-1.3-0.1l-0.4,0.1l-0.7,0.2c-0.4,0.1-0.5,0.5-0.5,1.3
	c0,0.4,0.2,0.6,0.5,0.7L29,9.1c0-0.7,0.4-1,1.3-1l1.9,0.1c0.3,0,0.5-0.2,0.8-0.6c0.2-0.4,0.3-0.8,0.3-1.1
	C33.4,6.1,33.2,5.8,32.9,5.4z M30.4,2.9C30.3,3,30,3.2,29.6,3.2l-0.7,0.1C29,3,29.3,2.8,29.8,2.8h0.1L30,2.9H30.4z M29.6,22.5
	l0.2,0.2c0,0.1,0.1,0.3,0.1,0.7c0-0.7,0.1-1,0.3-0.8c-0.4-0.4-0.7-0.5-1.1-0.3L29.6,22.5z M35.9,20.7l-6.6,13.9c0,0,0.1,0.1,0.3,0.1
	c0.1,0,0.2-0.1,0.2-0.3c0.2-0.4,0.4-0.8,0.7-1.3c0.3-0.5,0.5-1.1,0.9-1.8l0.3-0.8l0.8-1.4l2.3-4.8c0.2-0.3,0.3-0.6,0.5-1
	c0.2-0.4,0.4-0.9,0.7-1.5c0.3-0.8,0.7-1.6,1-2.5c0.3-0.9,0.7-1.8,1.1-2.8c0.1-0.2,0.1-0.3,0.1-0.3V16c0,0-0.1-0.1-0.1-0.1L38,15.8
	l-0.1,0.1L37.7,16L35.9,20.7z M30.5,18.2l-0.2,0.3l-0.5,0.3v0.5l0.1,0.1l-0.5,0.1l0.1,0.4c0.4,1,1.4,1.5,3.1,1.5
	c0.2,0,0.3-0.1,0.3-0.2c0-0.1-0.3-0.2-0.8-0.3c-0.4,0-0.7-0.2-1.1-0.5c-0.3-0.3-0.5-0.7-0.5-1c0-0.6,0.3-1,1-1c0,0,0.3,0.1,0.8,0.3
	c0.2,0.3,0.2,0.5,0.2,0.7l-0.1,0.4c0.3-0.2,0.5-0.5,0.5-0.7c0-0.8-0.5-1.2-1.6-1.2l-0.4,0.1L30.5,18.2z M30.8,8.5h-0.4h0.2l-0.3,0.1
	c-0.2,0.5-0.3,1-0.3,1.3c0,0.6,0.1,1.3,0.2,1.9c0.4-0.1,0.5-0.3,0.5-0.6V9.9l0.1-0.7L30.8,8.5z M31.3,23.9L31,24.2
	c-0.4,0.2-0.7,0.7-0.9,1.4h0.1c0.4,0,0.7-0.4,1-1.2L31.3,23.9z M32.9,32.6l-0.5,0.2L32,33l-0.1,0.1l-0.2,0.1c-0.2,0-0.4-0.2-0.5-0.5
	C31.1,32.8,31,33,31,33.2v0.1c0.1,0.2,0.3,0.4,0.4,0.4l0.5-0.1l0.4-0.2c0.2-0.1,0.4-0.1,0.4-0.1c0.5,0,0.7,0.2,0.7,0.5
	c0,0.2-0.1,0.4-0.4,0.7c-0.6,0.3-1,0.5-1.3,0.5c-0.1,0-0.6-0.1-1.6-0.3l-0.1,0.3c0.8,0.2,1.4,0.2,1.9,0.2c1.4,0,2.2-0.5,2.2-1.6
	c0-0.2-0.1-0.4-0.3-0.6c-0.2-0.3-0.4-0.4-0.6-0.4L32.9,32.6z M36.7,2.3L36,2.5l-0.8,0.3l-0.5,0.2c-0.3,0.1-0.6,0.2-1,0.5
	c-0.3,0.2-0.7,0.5-1.1,0.8c-0.1,0.1-0.2,0.2-0.4,0.4c-0.2,0.2-0.4,0.5-0.7,0.8C31.3,5.8,31.1,6,31,6.2c-0.1,0.2-0.2,0.5-0.3,0.8
	l0.7,0.1c1.1-2.8,3.3-4.1,6.6-4h0.4c0,0-0.1-0.2-0.1-0.4s0.1-0.3,0.4-0.3c0.2,0,0.4,0.1,0.4,0.4c0,0.2-0.2,0.3-0.5,0.4
	c1.2,0.2,1.9,0.4,1.9,0.8c0,0.3-0.2,0.5-0.5,0.5c0,0-0.5-0.2-1.4-0.7c-0.2-0.1-0.5-0.2-0.7-0.2c-0.5,0-0.8,0.2-0.8,0.7v0.1
	c0.4-0.2,0.7-0.4,1-0.4c0.2,0,0.3,0,0.3,0.1l1.3,0.5c0.2,0.1,0.4,0.2,0.7,0.2c0.6,0,0.9-0.3,1-0.8l0.5,0.1c-0.1-0.4-0.3-0.7-0.5-0.8
	c-0.2-0.2-0.3-0.2-0.4-0.2c-0.5-0.1-0.7-0.2-0.7-0.4c0,0,0-0.1,0.1-0.1c-0.2,0,0.2,0.1,1,0.4l0.2,0.1c0.7,0.6,1.2,0.8,1.6,0.8
	c0.8,0,1.1-0.1,1.1-0.3c0-0.1,0-0.2-0.1-0.2c0.7,0,1.2-0.3,1.5-0.9l-0.1-0.1c-0.7,0.2-1.3,0.4-1.6,0.4c-0.5,0-1.3-0.1-2.5-0.4
	c-1-0.2-1.9-0.3-2.6-0.2L36.7,2.3z M31,40.9l0.1,0.7l0.1,0.1l0.1,0.2L31,41.8l0.2,0.1l-0.3-0.1l-0.1-0.6C30.7,41,30.8,40.9,31,40.9
	L31,40.9z M31.3,14.5L31,14.6l0.3,0.8l0.1,0.2c0.2,0.2,0.5,0.3,0.9,0.4c0-0.1-0.1-0.2-0.2-0.3c-0.1-0.1-0.1-0.3-0.2-0.5l-0.4-0.7
	l-0.2-0.2L31.3,14.5z M31.7,41.1l-0.1,0.4l0.1,0.3l-0.1-0.1l-0.4-0.1l-0.1-0.2c0-0.2,0.1-0.4,0.2-0.4L31.7,41.1z M32,2.5
	c0.2,0,0.5,0,0.8,0.1v0.1v0.3l-0.4,0.8c0.1-0.1,0.2-0.2,0.4-0.3c0.2-0.1,0.3-0.2,0.5-0.4c0.2-0.2,0.2-0.3,0.2-0.5
	c0-0.5-0.2-0.7-0.7-0.7S32.1,2.1,32,2.5z M32.4,15.2l0.2,0.3c0,0.3,0.2,0.4,0.4,0.4h0.1c-0.4-0.8-0.5-1.3-0.5-1.5
	c0-0.4,0.3-0.6,0.8-0.7l0.1-0.2l-0.4-0.1c-0.6,0-0.9,0.3-0.9,0.8C32.2,14.6,32.2,14.9,32.4,15.2z M33.2,8.3l-0.5,0.3l-0.4,0.5
	l1.1,0.4l0.3,0.5c0.1,0.3,0.2,0.5,0.2,0.7c0,0.1,0,0.2,0,0.4c0,0.2-0.1,0.3-0.1,0.5v0.9l0.4,0.7l0.2,0.5l-0.3,0.2
	c-0.3,0.2-0.4,0.5-0.4,1.1c0,0.3,0,0.5,0.1,0.6L34,16l0.2,0.1c0.4-0.6,1-1,1.7-1h0.2l1.2,0.4l0.9,0.1v-0.1l-0.4-0.2l0.1-0.4
	c0.8,0.5,1.5,0.8,2.2,0.8c0.3,0,0.4-0.1,0.5-0.2c-0.3,0-0.6-0.1-0.9-0.1c-0.3,0-0.5-0.1-0.7-0.2l-0.8-0.3l-0.5-0.2l-1-0.8l-0.2-0.4
	l0.2-0.1l1.3,1c0.6,0.5,1.7,0.8,3.2,0.8c1,0,1.8-0.3,2.3-0.8L43,14.4l-0.5,0.2c-0.3,0.1-0.6,0.1-0.7,0.1c-0.6,0-1.4-0.1-2.3-0.4
	l-0.9-0.4l-0.8-0.7L37.7,13c-0.6-0.8-0.9-1.7-0.9-2.8c0-0.4,0.1-0.7,0.2-0.9c0.3-0.6,0.5-0.9,0.5-1c0-0.1-0.1-0.2-0.4-0.2
	c-0.2,0-0.5,0.1-0.8,0.2c-0.3,0.3-0.4,0.5-0.4,0.8v0.2c0,0,0.1,0.1,0.1,0.2c0,0.1,0,0.2,0.1,0.4h-0.1V9.8l-0.2,0.2
	c0,0-0.1-0.1-0.1-0.2c0-0.1,0-0.1-0.1-0.2c-0.1-0.6-0.4-1-0.7-1.3C34.5,8.2,34.2,8,34,8c-0.2,0-0.3,0-0.3,0.1L33.2,8.3z M32.8,41
	l0.1,0.4l-0.1,0.2l0.1-0.1l-0.4-0.2v-0.1v-0.1l-0.1-0.1c0-0.1,0.1-0.2,0.2-0.2H32.8z M34.9,27.1L34,27.2c-0.3,0.3-0.4,0.5-0.4,0.8
	c0,0,0,0.1,0.1,0.4l0.1,0.3l-0.2,0.1l0.1-0.1c-0.2,0.2-0.4,0.3-0.5,0.4c-0.5,0.3-0.8,0.7-0.8,1.4c0,0.3,0.1,0.6,0.2,0.9l0.4,0.4
	c0.2,0.2,0.4,0.2,0.6,0.2s0.4,0,0.5-0.1c-0.3-0.6-0.4-1-0.4-1.3c0-1.1,0.6-1.7,1.7-1.7c0.3,0,0.7,0.1,1.1,0.4l0.3,0.4
	c0.4,0.6,0.5,1.1,0.5,1.7c0,0.3-0.2,0.8-0.5,1.6l-0.3,0.5v0.1c0,0.2,0.1,0.4,0.2,0.4c0.3,0,0.5-0.2,0.8-0.7c0.4-1,0.7-1.7,0.7-2.2
	c0-1.1-0.4-2-1.1-2.7l-0.8-0.5l-0.8-0.5L35,27.1L34.9,27.1z M33.2,17c-0.3,0.2-0.5,0.4-0.5,0.5c0,0.2,0.3,0.5,0.9,0.9
	c0.2,0.1,0.3,0.2,0.4,0.2H34c0.1-0.3,0.2-0.4,0.2-0.5c0-0.2-0.1-0.3-0.4-0.5c0,0-0.1-0.1-0.2-0.1c-0.1-0.1-0.2-0.2-0.3-0.3L33.2,17z
	 M33.4,16.6l0.1,0.4l0.7,0.6l0.1,0.2c0-0.1,0.1-0.2,0.1-0.2c-0.2-0.2-0.3-0.3-0.5-0.4C33.8,16.9,33.6,16.8,33.4,16.6z M33.6,4.7
	c0.1,0,0.3,0,0.7-0.1c0.3-0.1,0.5-0.1,0.6-0.1l0.8,0.1c0,0,0.1-0.1,0.1-0.2c0-0.2-0.1-0.2-0.4-0.2c-0.2,0-0.5,0.1-0.7,0.2l-0.5,0.2
	L33.6,4.7z M34.2,5.6c0.2,0.5,0.6,0.8,1.1,1l1.3,0.3l0.8,0.3V7.1c0-0.1-0.2-0.3-0.6-0.5L34.2,5.6z M37.4,6.6l0.5,0.5
	c0.2,0.6,0.4,1,0.4,1.3c0,0.3-0.1,0.8-0.4,1.4c-0.2,0.6-0.4,1-0.4,1.3c0,0,0,0.1,0.1,0.4l0.4,0.7c0.2,0.3,0.4,0.5,0.7,0.6
	c0.1-0.2,0.1-0.3,0.2-0.4c0-0.1,0-0.2,0.1-0.2c0.8-2.1,1.4-3.5,1.8-4.1c0.4-0.7,1-1.2,1.8-1.6l2.2-0.8c0.1-0.1,0.1-0.2,0.1-0.2V5.3
	l-0.1-0.1l-6.2,0.1L35.4,5c-0.7-0.1-1,0-1,0.3c0,0.3,0.6,0.5,1.8,0.8c0.2,0,0.3,0.1,0.5,0.2C36.9,6.3,37.1,6.4,37.4,6.6z M36.2,29.5
	L36,29.6l0.3-0.1c-1,0.4-1.5,1.1-1.7,2l0.7-0.1l0.1,0.2l-0.1-0.2c0,0,0.1,0.1,0.1,0.2c0,0.1-0.1,0.2-0.2,0.3
	c-0.4,0.4-0.6,0.8-0.6,1.3c0,0.4,0.1,0.7,0.2,1l0.5,0.5L36,35c0-0.2,0-0.4,0.1-0.4l0.2,0.1l0.8,0.4l1.3-0.7l0.7,0.1
	c0.2,0.2,0.2,0.3,0.2,0.4l-0.1,0.3l-0.1,0.2l-0.4,0.4l-0.5,0.4c-0.2,0.2-0.4,0.3-0.5,0.5c-0.2,0.2-0.3,0.3-0.5,0.5
	c-0.4,0.4-0.6,0.8-0.6,1.3c0,0.5,0.2,0.7,0.5,0.7c0.2,0,0.4-0.1,0.7-0.2c-0.6-0.1-0.8-0.4-0.8-0.7c0-0.4,0.2-0.6,0.5-0.8l1.7-1.1
	c0.4-0.3,0.6-0.7,0.7-1.4v-0.1c0-0.1-0.1-0.4-0.3-0.8l-0.4-0.3c-0.2,0-0.3-0.1-0.4-0.1c-0.1,0-0.2,0-0.3,0c0,0-0.2,0.1-0.5,0.3
	L38,34.1c-0.3,0.2-0.6,0.3-0.9,0.3l-0.8-0.5c-0.3-0.4-0.4-0.7-0.4-0.9c0-0.6,0.4-1,1.1-1.3l0.1-0.6c0-0.5-0.2-1-0.7-1.4L36.2,29.5z
	 M34.9,25.1l-0.1,0.2l0.5,0.1l-0.1,0.7l0.2,0.4c0.4,0.5,0.8,0.7,1.3,0.7c0.1,0,0.4-0.1,0.8-0.4c0.4-0.1,0.7-0.1,0.9-0.1
	c0.3,0,0.6,0.1,0.8,0.4c0,0.7-0.2,1.1-0.7,1.1h-0.2c0.1,0.2,0.3,0.3,0.5,0.3c0.8,0,1.1-0.3,1.1-1c0-0.8-0.4-1.3-1.3-1.3
	c-0.2,0-0.4,0.1-0.9,0.2c-0.4,0.1-0.7,0.2-0.9,0.2c-0.5,0-0.8-0.3-0.8-0.9c0-0.6,0.4-0.8,1.3-0.8c0.7,0,1.5,0.3,2.4,1l0.4,0.4
	l0.1,0.2l0.2,0.3l0.4,0.5l0.2,0.4l0.4,0.4c0-0.3-0.1-0.6-0.4-0.8c-0.9-1.6-1.8-2.6-2.9-2.9c-0.5-0.2-1-0.3-1.3-0.3
	c-0.4,0-0.8,0.1-1.2,0.3C35.2,24.5,35,24.8,34.9,25.1z M35,11.6l-0.2-0.2l0.2-0.3l0.1-0.1l0.2,0.1v0.4L35,11.6z M34.9,36.2
	c0.2,0,0.4,0,0.7-0.1c0.3-0.1,0.5-0.1,0.7-0.1c0,0,0.1,0,0.4,0.1l0.1,0.1c0,0.1,0.1,0.2,0.1,0.4c0-0.1,0,0-0.1,0.3
	c0.5,0,0.8-0.3,0.8-0.7c0-0.5-0.3-0.8-0.9-0.8C36.1,35.4,35.5,35.7,34.9,36.2z M35.7,11.8l0.3,0.1c0,0.2,0,0.3-0.1,0.4
	c-0.1,0.1-0.3,0.1-0.6-0.1l0.1-0.4H35.7z M35.4,30.6l0.4-0.4l0.4-0.1l-0.2,0.5L35.4,30.6z M35.9,43.5l0.1,0.4l0.1,0.1V44
	c-0.3-0.1-0.5-0.2-0.5-0.2l0.1-0.2L35.9,43.5z M35.9,12.7c0.2,0.1,0.3,0.1,0.4,0.2c0,0,0,0,0.1,0l-0.1,0.2l-0.2,0.1H36
	c0,0-0.1-0.1-0.1-0.1c0,0-0.1-0.1-0.2-0.1v-0.2C35.7,12.7,35.8,12.7,35.9,12.7z M38.2,23.8l0.4,0.2l0.9,0.7l0.5,0.5l0.9,1.2v0.1
	c0.1,0.1,0.2,0.1,0.2,0.2c0.1,0,0.1,0.1,0.2,0.1c0.1-0.1,0.1-0.2,0.1-0.5L41.3,26l-1.2-1.6l-0.8-0.7c-0.3-0.2-0.6-0.4-0.9-0.5
	c-0.3-0.2-0.6-0.3-0.8-0.5l-0.5-0.2l-0.4-0.2c-0.2-0.1-0.4-0.2-0.5-0.2c-0.2,0-0.4,0.1-0.4,0.4c0,0.2,0.4,0.4,1.3,0.7
	C37.5,23.4,37.8,23.5,38.2,23.8z M36.4,21.7L36.2,22l2,0.9h0.1l-0.8-0.7l-0.2-0.1l-0.4-0.2L36.4,21.7z M36.5,43.2l0.1,0.5
	c0,0.1,0,0.1-0.1,0.1l-0.3-0.1l-0.1-0.4l0.1-0.1h0.2L36.5,43.2L36.5,43.2z M37,45.2l-0.7,0.2v0.1c0.4,0.4,0.9,0.6,1.4,0.6
	c0.4,0,0.7-0.1,0.9-0.2c0.7-0.4,1.1-0.6,1.2-0.5l0.5,0.2v0.4h0.1c0.2,0,0.2-0.1,0.2-0.4c0-0.4-0.3-0.7-1-0.7c-0.2,0-0.6,0.1-1,0.3
	c-0.4,0.2-0.7,0.3-0.8,0.3c-0.1,0-0.2-0.1-0.4-0.2c-0.1-0.1-0.2-0.2-0.3-0.2C37.2,45.2,37.1,45.2,37,45.2z M37,20.2
	c-0.1,0.2-0.2,0.4-0.2,0.5c0,0,0.3,0.2,1,0.7l0.6,0.5l0.4,0.4l0.4,0.4l0.4,0.4l0.6,0.6l0.7,0.9l0.2,0.3l0.1,0.1
	c0.1,0.3,0.2,0.5,0.3,0.5c0.2,0,0.2-0.1,0.2-0.2v-0.1c0,0-0.1-0.1-0.1-0.2c0-0.1-0.1-0.2-0.2-0.3c0,0.1,0,0-0.1-0.3
	c-0.3-0.5-0.7-1-1.1-1.4l-0.4-0.4l-0.9-0.8l-0.2-0.2l-0.9-0.8L37,20.2z M37.3,2.6L37.3,2.6c0.2,0,0.2,0,0.2,0.1c0,0.1,0,0.2-0.1,0.2
	l-0.2-0.1L37.3,2.6z M37.9,2.6h0.3v0.3h-0.4L37.9,2.6z M37.9,12.7l0.1,0.2c0.1,0.2,0.2,0.4,0.5,0.6c1,0.6,2,1,3,1
	c0.2,0,1-0.2,2.4-0.7c0.2,0,0.3-0.1,0.4-0.2c0-0.4-0.1-0.6-0.3-0.7l-0.1-0.1c-0.2,0-0.5,0.1-0.7,0.4c-0.7,0.2-1.4,0.4-2.1,0.5h-0.7
	C39.4,13.6,38.5,13.3,37.9,12.7z M39.2,20.9l1.4,1.8l0.5,0.7l0.4,0.7l0.1,0.2l0.2,0.4l0.1-0.5c-0.1-0.5-0.4-1.1-0.8-1.6
	c0,0-0.1-0.1-0.1-0.2c-0.1-0.1-0.1-0.2-0.2-0.2L39.8,21c-0.1-0.2-0.2-0.3-0.4-0.5c-0.6-0.6-0.9-1.4-0.9-2.3c0-0.6,0.3-0.8,1-0.8
	c0.5,0,1,0.2,1.4,0.7c0.2-0.2,0.2-0.3,0.2-0.4c0-0.1-0.1-0.2-0.4-0.4c-0.6-0.3-1-0.5-1.4-0.5c-1,0-1.4,0.5-1.4,1.5v0.1l0.2,1
	L39.2,20.9z M45.1,5.3l-0.2,0.4l-0.1,0.2l-0.6,0.3c-0.2,0.1-0.3,0.2-0.5,0.2c-0.2,0.1-0.4,0.2-0.7,0.2c-0.9,0.3-1.5,0.7-1.8,1.3
	L41.2,8l-0.7,1.1l-0.3,0.5L39.7,11L39,12.9l0.4,0.3l0.2-0.6l0.8-2.1l0.2-0.7L41.1,9l0.2-0.4c0.1-0.1,0.2-0.2,0.4-0.4
	c0.2-0.2,0.4-0.4,0.7-0.8c0.1-0.1,0.3-0.2,0.4-0.3l2.2-0.8c0.2,0,0.4-0.2,0.4-0.4C45.3,5.8,45.2,5.6,45.1,5.3z M41.4,36.3l-0.6,1.1
	l-0.5,0.7L40,38.5l-0.6,0.8l-0.3-0.1c0.9-1,1.4-1.6,1.6-2l0.2-0.6l0.3-0.6l0.1-1.2L41.4,36.3z M39.5,2.5c0,0.1,0.1,0.2,0.1,0.2
	c0,0.1-0.1,0.1-0.3,0.1c-0.1,0-0.2-0.1-0.2-0.2c0-0.2,0.1-0.2,0.2-0.2L39.5,2.5z M40.6,31.7l0.2,0.3l-0.1,0.2l-0.4-0.1l0.2,0.2
	l0.2,0.3c-0.1,0.1-0.1,0.2-0.2,0.2c-0.1,0-0.3-0.1-0.4-0.4l-0.1-0.1l-0.3-0.2l-0.4-0.3l0.1-0.1l0.3,0.1l1,0.4l-0.3-0.1L40,31.7
	l-0.1-0.1c0-0.4,0-0.6-0.1-0.7C40.2,31.5,40.5,31.8,40.6,31.7z M43.4,18.7v0.4c0,0.3-0.1,0.6-0.4,1c-0.4,0.5-0.8,0.7-1.1,0.7
	c-0.5,0-1-0.3-1.5-0.9L39.9,19v0.5c0,0.3,0,0.6,0.2,0.8c0.4,0.6,1,1,1.7,1c0.7,0,1.3-0.4,1.8-1.2c0.2-0.5,0.3-0.8,0.3-1
	c0-0.4-0.1-0.5-0.2-0.5L43.4,18.7z M41,37.8v0.1c-0.3,0.8-0.6,1.1-0.8,1.1c0,0,0.1-0.1,0.1-0.2l0.2-0.2l0.1-0.3l0.3-0.7L41,37.8z
	 M43.7,10.3c-0.5,0.4-1.1,0.6-1.7,0.6c-0.2-0.2-0.4-0.3-0.4-0.5c0-0.1,0-0.2,0.1-0.2c0.2-0.4,0.4-0.7,0.7-0.7l0.8-0.4
	c0.3-0.1,0.4-0.3,0.4-0.5l-0.1-0.7L43,8.6l-0.5,0.4c-0.5,0.2-0.9,0.5-1.3,0.9C41.1,10.2,41,10.6,41,11c-0.3,0.3-0.5,0.6-0.4,0.8v0.4
	l0.6-0.3c0.2-0.1,0.3-0.1,0.4-0.2c0.1,0,0.2,0,0.2-0.1l1.4-0.2c1-0.2,1.5-1.2,1.5-3.1c0-0.1,0-0.3-0.1-0.7l-0.3-0.6l-0.1,0.2
	l0.2,0.8v0.2C44.4,9,44.2,9.7,43.7,10.3z M41.5,15.7c-0.6,0.2-0.8,0.5-0.8,0.8c0,0.4,0.3,0.6,0.8,0.6c0.3,0,0.5-0.1,0.5-0.2
	c0-0.1-0.1-0.2-0.2-0.3c-0.1-0.1-0.2-0.2-0.2-0.4c0-0.1,0.1-0.2,0.2-0.3l1.3-0.8l0.5-0.3c0.2-0.2,0.3-0.3,0.3-0.4v-0.2l-0.6,0.4
	C42.9,15,42.3,15.3,41.5,15.7z M41.5,17.8c-0.2,0.3-0.2,0.8-0.2,1.3c0,0.4,0,0.6,0.1,0.6l0.1,0.1c0,0.1,0.1,0.2,0.1,0.2
	c0,0.1,0.1,0.2,0.2,0.3l0.2,0.2l0.4-0.2l-0.4-1v-0.6c0-0.5,0.3-0.8,1-1l0.3-0.2c-0.3-0.2-0.5-0.3-0.7-0.3
	C42.2,17.2,41.9,17.4,41.5,17.8z M43.1,11.9c-0.8,0.2-1.3,0.7-1.4,1.4h0.4c0.2-0.6,0.6-0.8,1.1-0.8c0.6,0,1.1,0.3,1.4,0.9l0.1,0.2
	l0.4,1.5c0,0.5-0.2,1-0.5,1.4l-0.1,0.2l0.4,0.3c0.4-0.8,0.6-1.5,0.6-2.1c0-0.9-0.2-1.6-0.7-2.2l-0.2-0.2L44,12L43.1,11.9z M42,27.8
	l0.4,0.4l0.3,0.7l0.1,0.2l0.5,0.7l0.6,1.1c-0.1,0.6-0.2,0.8-0.2,0.8c0,0-0.1-0.3-0.1-0.8c-0.1-0.1-0.2-0.2-0.2-0.4l-0.2-0.2L43,30.1
	v-0.2c0,0-0.1-0.1-0.2-0.3c-0.1-0.1-0.2-0.3-0.4-0.6l-0.2-0.6L42,27.8z M43.5,32.3c0.2-0.1,0.1,0.2-0.3,1c0,0-0.2,0.1-0.4,0.1
	c-0.1,0-0.3-0.1-0.4-0.2l-0.2-0.2l0.4,0.1c0.2,0,0.4-0.2,0.7-0.6L43.5,32.3z M44.4,37.9L44.2,38l-2,2.8l0.7-0.6l0.9-1
	c0.3-0.3,0.6-0.5,0.7-0.5c0.1,0,0.2,0.1,0.4,0.2c0.1,0.2,0.2,0.3,0.2,0.4c0,0.2-0.2,0.5-0.5,0.8v0.2c0.8-0.3,1.2-0.9,1.1-1.7v-0.3
	c-0.2-0.4-0.4-0.7-0.7-0.7l-0.2,0.1L44.4,37.9z M42.4,18.1l-0.1,0.5c1.2,0,1.8-0.3,1.8-0.7c0-0.2-0.1-0.3-0.2-0.3h-0.1
	c-0.1,0-0.2,0.1-0.4,0.3c-0.2,0.1-0.5,0.2-0.7,0.2H42.4z M42.4,27c0.1,0,0.2,0,0.2,0.1l0.1,0.4c0,0,0,0.2,0.1,0.4l0.9,1.2
	c-0.4-0.3-0.7-0.6-1-0.9C42.5,27.8,42.4,27.4,42.4,27z M43.7,33.5c0,0.1-0.1,0.2-0.2,0.4L43,34l-0.2-0.3L43.7,33.5z M43.7,34.2
	l-0.2,0.1c-0.2,0.2-0.3,0.3-0.4,0.3c-0.1,0-0.2-0.1-0.2-0.1c0.2-0.2,0.4-0.4,0.6-0.4C43.5,34.2,43.6,34.2,43.7,34.2z M43,16l0.6,0.7
	l0.2,0.3l0.5,0.5l0.2,0.3c0.4,0.6,0.5,1.1,0.5,1.6c0,0.7-0.3,1.2-0.8,1.4L44,20.9l-0.7,0.1L43.3,21c-0.1,0.1-0.1,0.2-0.1,0.2
	c0,0.2,0.2,0.2,0.5,0.2H44c0.4,0,0.8-0.2,1.1-0.6c0.3-0.4,0.4-0.9,0.4-1.5c0-0.9-0.4-1.7-1.1-2.5L44,16.4c-0.5-0.5-0.7-0.8-0.8-0.8
	C43.1,15.7,43,15.8,43,16z M43.6,4.3c-0.2,0-0.2,0-0.2,0.1c0,0.2,0.1,0.3,0.4,0.3c0.1,0,0.2,0,0.2-0.1L44,4.5
	C44,4.4,43.8,4.3,43.6,4.3z M44.8,6.9l0.1,0.7c0,0,0,0.2,0,0.3c0,0.2,0,0.4,0.1,0.8c0,0.1,0.1,0.3,0.1,0.5c0,0.3-0.1,0.9-0.4,1.9
	c-0.1,0.3-0.1,0.5-0.2,0.7c0.2,0.3,0.4,0.5,0.5,0.5c0.2,0,0.5-0.6,0.7-1.8c0-0.2,0.1-0.4,0.1-0.6c0-0.2,0-0.4,0-0.7
	c0-0.5,0-0.9-0.1-1.2c-0.1-0.5-0.2-0.8-0.2-1V7c0-0.2-0.1-0.3-0.2-0.3c-0.1,0-0.1,0-0.2,0.1L44.8,6.9z M44.9,35.9
	c-0.2,0.4-0.4,0.6-0.4,0.8c0,0,0.1,0.1,0.1,0.2c0,0.1,0,0.1,0.1,0.2l0.4-0.5l0.7-1.2c0.1-0.2,0.2-0.3,0.2-0.4c0-0.2-0.1-0.2-0.3-0.2
	C45.1,34.7,44.9,35.1,44.9,35.9z M45.5,33.3c-0.2,0.1-0.2,0.2-0.2,0.4c0,0.2,0.1,0.4,0.2,0.5h0.1c0.2,0,0.4-0.2,0.4-0.6l-0.1-0.1
	L45.5,33.3z M45.3,30.5l0.3,0.1l0.1-0.2c0-0.1-0.1-0.1-0.2-0.1h-0.1L45.3,30.5z M45.5,31.7c-0.2,0-0.2,0.1-0.2,0.4
	c0,0.2,0.1,0.2,0.2,0.2c0.2,0,0.3-0.1,0.3-0.2l-0.1-0.1C45.7,31.8,45.7,31.7,45.5,31.7z"/>
</svg>
