<?xml version="1.0" standalone="no"?>
<!DOCTYPE svg PUBLIC "-//W3C//DTD SVG 20010904//EN"
 "http://www.w3.org/TR/2001/REC-SVG-20010904/DTD/svg10.dtd">
<svg version="1.0" xmlns="http://www.w3.org/2000/svg"
 width="260.000000pt" height="260.000000pt" viewBox="0 0 260.000000 260.000000"
 preserveAspectRatio="xMidYMid meet">
<metadata>
Created by potrace 1.11, written by Peter Selinger 2001-2013
</metadata>
<g transform="translate(0.000000,260.000000) scale(0.100000,-0.100000)"
fill="#000000" stroke="none">
<path d="M0 1300 l0 -1300 1300 0 1300 0 0 1300 0 1300 -1300 0 -1300 0 0
-1300z m2560 0 l0 -1260 -1260 0 -1260 0 0 1260 0 1260 1260 0 1260 0 0 -1260z"/>
<path d="M79 2513 c-3 -52 0 -2426 4 -2429 4 -4 2065 -7 2400 -4 l37 0 0 1220
0 1220 -1220 0 c-671 0 -1220 -3 -1221 -7z m656 -68 c71 -25 81 -39 23 -31
-29 3 -48 2 -48 -4 0 -6 -16 -8 -39 -4 -42 7 -81 -8 -81 -31 0 -15 -21 -21
-32 -9 -13 12 6 43 34 55 23 9 41 10 69 2 22 -6 39 -7 39 -4 0 13 -91 31 -153
31 -76 0 -159 -23 -202 -56 -31 -24 -72 -33 -60 -14 8 13 101 60 150 76 56 18
235 11 300 -11z m137 -10 c3 -23 0 -35 -8 -35 -13 0 -24 22 -24 51 0 35 28 21
32 -16z m203 21 c18 -13 18 -14 -9 -9 -22 5 -33 1 -47 -18 -28 -36 -23 -66 27
-177 48 -108 61 -164 58 -250 -2 -62 -9 -82 -27 -82 -10 0 -13 12 -9 48 9 109
-60 259 -142 306 -105 61 -221 30 -199 -53 8 -30 52 -40 70 -16 7 11 13 14 13
9 0 -36 -64 -45 -98 -14 -25 24 -28 47 -10 86 10 22 10 28 0 32 -36 12 20 72
67 72 51 0 104 -22 146 -61 24 -22 46 -36 49 -30 3 5 -7 21 -24 34 -28 24 -39
55 -23 70 3 4 12 2 19 -4 10 -8 17 -3 28 20 26 50 73 65 111 37z m154 -3 c23
-19 38 -83 20 -83 -6 0 -26 12 -45 28 -35 27 -44 56 -21 65 20 9 24 8 46 -10z
m336 -17 c8 -19 24 -37 35 -41 28 -9 11 -37 -40 -66 -25 -14 -37 -26 -31 -32
6 -6 21 -1 39 12 17 11 43 21 58 21 32 0 65 -26 58 -45 -3 -7 -1 -16 5 -20 6
-3 11 -18 11 -32 l0 -26 -27 27 c-28 28 -45 29 -121 7 -85 -25 -139 62 -69
110 52 37 63 67 27 76 -23 6 -25 14 -8 31 22 22 48 13 63 -22z m114 20 c9 -11
8 -18 -4 -30 -25 -25 -34 -19 -22 14 13 35 11 34 26 16z m-1515 -38 c19 -13
64 -9 116 11 59 22 57 12 -5 -25 -43 -25 -96 -36 -123 -26 -21 7 -31 44 -19
67 l11 20 4 -20 c2 -11 9 -23 16 -27z m1182 27 c11 -26 -4 -60 -34 -77 -16
-10 -32 -15 -36 -11 -10 10 -7 62 4 84 13 23 58 26 66 4z m1100 -6 c8 -6 14
-24 14 -40 0 -41 -38 -64 -87 -53 l-38 8 37 4 c45 4 73 35 57 64 -14 26 -55
23 -75 -7 -21 -32 -67 -34 -88 -3 -15 21 -13 38 5 38 5 0 9 -6 9 -14 0 -7 6
-19 14 -25 11 -9 20 -6 42 12 45 37 79 42 110 16z m-326 -8 c59 -16 170 -63
170 -73 0 -15 -46 -8 -85 12 -22 11 -46 18 -53 15 -7 -3 -26 5 -41 16 -23 17
-44 21 -102 22 -96 1 -210 -11 -279 -28 -113 -29 -108 -29 -85 -10 26 21 104
43 179 51 33 4 62 8 64 9 8 7 192 -4 232 -14z m76 3 c30 -8 54 -20 54 -25 0
-5 -1 -9 -2 -9 -2 1 -34 12 -73 25 -78 27 -63 34 21 9z m-992 -50 c29 -30 34
-49 10 -40 -9 3 -12 2 -9 -4 9 -15 -42 -4 -71 15 -27 17 -26 17 -18 39 10 25
58 19 88 -10z m201 -12 c9 -25 -27 -50 -64 -44 -39 5 -39 21 0 49 34 23 54 21
64 -5z m400 -2 c0 -10 -7 -13 -20 -10 -11 2 -34 4 -52 5 -33 0 -32 9 2 18 36
9 70 3 70 -13z m400 -12 c7 -7 2 -8 -15 -3 -14 4 -29 12 -35 17 -7 7 -2 8 15
3 14 -4 30 -12 35 -17z m-1775 -23 l85 -6 71 -77 c40 -42 135 -149 213 -237
119 -134 141 -165 141 -191 0 -37 -27 -184 -35 -192 -6 -6 2 -15 -178 191 -76
86 -141 157 -145 157 -26 0 -32 -31 -32 -167 l0 -142 -36 -7 c-20 -4 -40 -2
-46 4 -6 6 -11 83 -13 185 -2 96 -9 194 -15 218 -15 59 -52 115 -108 166 -46
42 -53 44 -180 69 -19 4 -21 8 -12 19 18 22 97 25 290 10z m853 -8 c9 -24 -5
-101 -26 -147 -23 -49 -127 -220 -134 -220 -10 0 13 49 62 132 64 107 84 168
65 203 -7 12 -9 28 -6 34 10 15 33 14 39 -2z m757 -1 c80 1 180 3 223 5 50 2
81 -1 89 -9 7 -7 10 -12 7 -12 -16 -1 -80 -29 -66 -30 10 0 31 7 48 15 35 18
53 12 40 -13 -6 -11 -34 -23 -73 -31 -168 -37 -168 -36 -169 -333 0 -204 -6
-277 -21 -252 -3 5 -5 122 -4 259 1 138 -1 237 -4 220 -4 -16 -8 -129 -9 -249
-1 -121 -4 -222 -6 -225 -9 -8 -85 20 -87 32 -1 7 -2 116 -2 242 -1 208 -3
233 -20 262 -26 42 -81 71 -147 78 -115 13 -129 16 -129 35 0 14 30 17 110 11
41 -3 140 -5 220 -5z m-1443 -24 c15 -16 80 -89 143 -162 63 -74 132 -152 152
-174 21 -23 38 -49 38 -58 0 -21 -23 1 -119 112 -36 41 -68 77 -71 80 -16 14
-190 219 -190 224 0 14 21 4 47 -22z m603 10 c0 -4 -5 -13 -12 -20 -9 -9 -9
-12 0 -12 6 0 15 8 21 17 5 10 12 15 16 11 11 -11 -33 -48 -57 -48 -38 0 -52
14 -39 39 8 14 21 21 41 21 17 0 30 -4 30 -8z m178 -19 c16 -22 15 -28 -3 -43
-13 -11 -20 -9 -40 10 -14 13 -25 32 -25 43 0 16 5 18 28 13 15 -4 33 -14 40
-23z m-1103 -29 c16 -7 44 -27 60 -44 l30 -32 -55 30 c-30 17 -76 36 -103 43
-26 6 -50 16 -53 21 -8 12 80 -1 121 -18z m1182 -9 c22 -34 18 -50 -10 -39
-14 5 -37 45 -37 64 0 22 26 7 47 -25z m333 21 c111 -18 130 -25 168 -59 34
-31 26 -39 -13 -12 -20 13 -71 31 -115 41 -44 9 -88 23 -98 31 -15 12 -15 13
8 8 14 -3 36 -7 50 -9z m690 -2 c0 -21 -28 -24 -52 -4 l-23 18 38 -1 c21 -1
37 -6 37 -13z m-1235 -27 c-6 -27 -32 -48 -51 -40 -21 8 -17 21 12 48 30 28
45 25 39 -8z m69 14 c8 -12 -3 -41 -15 -41 -5 0 -9 11 -9 25 0 25 14 34 24 16z
m-368 -21 c1 0 4 -6 7 -13 4 -10 -3 -12 -23 -9 -21 3 -32 -2 -41 -16 -16 -26
-52 -12 -42 16 11 31 32 41 66 31 18 -5 33 -9 33 -9z m1478 1 c33 -36 66 -147
66 -219 0 -107 -25 -193 -109 -377 -43 -92 -54 -134 -48 -177 7 -49 22 -68 58
-68 43 0 46 31 9 92 -22 35 -30 58 -26 74 4 13 10 24 15 24 5 0 7 -9 4 -19 -3
-12 9 -41 32 -75 30 -46 35 -61 30 -86 -9 -42 -45 -56 -91 -34 -48 23 -76 73
-76 135 1 40 -2 50 -14 45 -22 -8 -18 37 8 81 12 21 25 40 29 43 22 17 89 104
89 116 0 26 -16 14 -29 -21 -14 -40 -52 -63 -93 -57 -19 2 -28 9 -28 21 0 10
-6 24 -14 30 -17 14 -26 55 -16 72 6 9 14 8 31 -5 48 -33 109 -12 153 54 15
23 25 47 23 53 -2 7 0 21 6 31 21 41 -3 205 -34 241 -11 12 -12 45 -1 45 5 0
17 -9 26 -19z m-2248 -17 c-20 -53 -35 -150 -30 -199 5 -46 3 -55 -10 -55 -16
0 -22 48 -17 130 3 50 35 140 49 140 9 0 12 -6 8 -16z m1203 -51 c-82 -71
-142 -138 -199 -227 -33 -50 -60 -82 -62 -75 -6 15 36 104 58 127 8 7 14 18
14 23 0 6 46 57 102 115 91 93 103 103 117 89 13 -13 10 -19 -30 -52z m991 46
c6 -11 13 -29 15 -40 4 -22 -13 -68 -27 -70 -4 -1 -14 -2 -20 -3 -28 -5 -68
24 -68 49 0 13 5 27 10 30 6 3 10 0 10 -8 0 -8 7 -20 15 -27 13 -10 19 -9 36
6 16 14 19 26 14 51 -7 38 -1 42 15 12z m-2154 -51 c-1 -62 -1 -63 28 -66 36
-4 54 11 36 33 -10 12 -10 15 4 15 23 0 20 -46 -4 -63 -23 -16 -64 -12 -81 9
-12 15 -16 105 -5 123 15 24 22 8 22 -51z m1658 36 c25 -24 19 -60 -15 -96
l-30 -33 16 34 c9 18 14 43 11 56 -7 27 -44 39 -65 22 -12 -10 -13 -9 -2 11
14 26 61 30 85 6z m-884 -54 c16 -30 2 -45 -21 -24 -29 26 -66 6 -75 -42 -5
-25 -9 -32 -15 -22 -15 23 -10 67 11 88 27 27 85 27 100 0z m-168 -7 c9 -10
19 -29 23 -43 4 -14 12 -31 18 -38 5 -7 7 -15 4 -18 -3 -3 -18 9 -34 26 -15
18 -38 42 -50 55 -13 12 -20 25 -16 28 12 13 40 7 55 -10z m841 -5 c32 -16 41
-17 54 -6 13 10 20 7 44 -19 35 -40 53 -104 45 -165 -7 -48 7 -76 18 -34 8 31
54 76 78 76 11 0 22 -8 25 -19 2 -10 16 -24 29 -30 14 -6 24 -19 24 -31 0 -17
-5 -20 -27 -15 -80 14 -87 -115 -10 -182 77 -66 173 -85 281 -55 48 14 57 8
30 -18 -19 -19 -141 -49 -180 -44 -11 1 -55 5 -99 8 -44 3 -102 10 -130 14
-54 9 -132 8 -172 -3 -22 -5 -25 -3 -20 14 6 26 -3 26 -45 2 -36 -22 -99 -32
-119 -21 -19 12 -4 92 21 112 12 10 26 16 30 13 5 -3 11 -1 15 5 3 5 -5 15
-19 22 -35 15 -33 36 6 52 30 13 73 13 130 1 43 -10 33 11 -19 41 -67 38 -93
64 -93 91 0 16 6 23 20 23 11 0 20 2 20 5 0 18 -53 105 -80 130 l-31 30 28 12
c38 17 100 13 146 -9z m577 -11 c65 -39 90 -81 90 -150 0 -39 -5 -53 -27 -75
-17 -17 -28 -22 -31 -14 -2 8 -16 10 -41 6 -27 -4 -40 -2 -50 10 -11 14 -11
16 2 16 42 0 78 88 58 142 -5 14 -27 42 -48 62 -48 45 -26 47 47 3z m-1860
-52 c0 -54 4 -68 26 -94 40 -48 7 -74 -37 -28 l-22 22 5 -27 c7 -40 -5 -51
-30 -28 -12 12 -22 26 -23 33 -5 78 -3 107 9 132 40 85 72 80 72 -10z m1590
66 c0 -5 -15 -20 -32 -32 -18 -13 -37 -29 -42 -37 -4 -8 -20 -28 -35 -45 -27
-29 -28 -29 -33 -9 -4 16 8 34 50 76 51 51 92 71 92 47z m-511 -69 c42 -21 57
-43 46 -68 -4 -11 -8 -34 -10 -53 -3 -49 -35 -68 -100 -61 -27 3 -55 29 -55
52 0 22 18 24 26 3 7 -18 55 -20 72 -3 18 18 15 53 -7 79 -15 19 -29 24 -68
24 -61 0 -96 -24 -143 -99 -35 -56 -73 -89 -49 -43 20 38 92 131 118 152 47
38 116 45 170 17z m526 -2 c11 -17 -5 -32 -21 -19 -8 6 -25 9 -39 7 -20 -4
-23 -3 -14 8 13 16 65 19 74 4z m-980 -148 c19 -40 22 -42 53 -37 27 5 32 3
33 -15 4 -58 1 -73 -16 -96 -13 -18 -14 -18 -9 6 3 14 -4 5 -14 -20 -10 -25
-15 -49 -11 -54 4 -4 -4 -31 -18 -59 -25 -49 -53 -137 -53 -166 0 -25 18 2 24
35 3 17 22 67 42 110 20 43 45 102 55 130 24 62 48 86 117 113 49 19 53 20 50
4 -2 -13 4 -18 24 -19 15 -1 45 -13 66 -28 21 -14 45 -26 54 -26 28 0 33 -22
9 -41 -16 -13 -20 -25 -17 -45 6 -32 -17 -80 -42 -88 -9 -3 -32 -2 -49 3 -41
12 -63 -8 -37 -34 13 -13 26 -15 58 -9 82 15 107 4 105 -46 l-1 -25 -11 28
c-10 24 -19 29 -57 29 -3 1 -20 -2 -38 -6 -28 -5 -38 -1 -63 24 -25 25 -28 33
-19 50 8 15 20 20 38 19 54 -4 62 0 62 31 0 53 -65 75 -134 45 -15 -7 -17 -5
-11 6 7 11 4 11 -15 -2 -13 -8 -30 -26 -38 -40 -12 -21 -11 -21 10 4 36 41 44
33 10 -10 -59 -75 -104 -173 -116 -248 -2 -16 -5 -32 -5 -35 -2 -10 -136 -1
-139 10 -5 13 10 98 46 274 22 108 20 178 -8 253 l-21 55 33 -19 c19 -11 41
-36 53 -61z m-414 21 c2 -65 -3 -258 -7 -262 -12 -12 -16 18 -16 131 0 68 1
129 1 136 2 19 21 14 22 -5z m-421 -1 c0 -5 -11 -14 -25 -20 -26 -12 -33 -4
-13 16 14 14 38 16 38 4z m60 -67 c18 -18 36 -34 39 -33 36 4 42 -17 9 -28
-44 -15 -52 -13 -85 22 -38 41 -45 26 -9 -20 31 -41 36 -65 19 -98 -15 -31
-50 -40 -38 -10 12 26 8 54 -16 106 -39 90 14 130 81 61z m175 25 c3 -5 -1
-10 -9 -10 -9 0 -16 5 -16 10 0 6 4 10 9 10 6 0 13 -4 16 -10z m15 -88 c0 -5
-13 -9 -28 -10 -15 0 -47 -8 -70 -18 -58 -23 -86 -76 -80 -151 5 -60 -7 -59
-16 0 -11 69 44 157 110 177 38 11 84 12 84 2z m281 -2 c11 -6 19 -21 19 -36
0 -26 -40 -74 -62 -74 -7 0 0 11 15 25 31 30 33 42 11 73 -17 24 -13 27 17 12z
m-461 -41 c0 -5 -4 -9 -10 -9 -5 0 -10 7 -10 16 0 8 5 12 10 9 6 -3 10 -10 10
-16z m188 -55 c-3 -20 -58 -34 -58 -15 0 6 9 11 20 11 14 0 20 7 20 22 0 16 3
19 11 11 6 -6 9 -19 7 -29z m347 27 c6 -11 -52 -68 -78 -77 -36 -11 -30 7 14
46 47 42 54 46 64 31z m-415 -59 c74 -36 158 -49 213 -34 41 12 62 -2 34 -23
-23 -16 -161 -9 -217 12 -62 22 -122 62 -114 74 3 5 9 8 12 7 4 -2 36 -18 72
-36z m300 -54 c24 -57 36 -163 26 -232 -7 -43 -51 -114 -64 -101 -3 2 2 13 10
22 21 24 48 109 48 149 0 53 -21 135 -48 189 -15 31 -19 45 -9 37 8 -7 25 -36
37 -64z m181 16 c35 -17 59 -66 52 -104 -5 -32 -21 -48 -55 -54 -32 -5 -47 9
-18 17 26 7 34 29 26 71 -8 43 -51 65 -116 60 l-45 -4 30 15 c40 19 89 19 126
-1z m582 -274 c167 -184 187 -210 164 -210 -13 0 -52 41 -192 200 -27 31 -80
90 -116 131 -36 41 -78 88 -92 104 -14 17 -28 28 -30 25 -3 -3 29 -43 70 -90
166 -186 221 -247 281 -313 34 -38 62 -73 62 -78 0 -12 -101 -139 -111 -139
-4 0 -9 4 -11 9 -1 5 -26 34 -53 63 -28 29 -86 93 -130 143 -75 85 -154 172
-182 201 -7 7 -13 19 -13 28 0 23 38 120 67 172 l26 46 51 -58 c28 -32 122
-137 209 -234z m1048 250 c24 -14 25 -52 0 -74 -25 -22 -40 -2 -17 23 9 10 16
23 16 29 0 18 -48 26 -68 11 -15 -13 -16 -12 -3 4 15 19 43 22 72 7z m-2072
-45 c12 -10 17 -26 15 -47 -5 -40 -14 -50 -14 -14 0 48 -16 66 -60 66 -40 0
-49 -6 -90 -60 -13 -16 -19 -20 -19 -10 0 23 34 59 69 74 39 16 76 13 99 -9z
m147 -299 l-3 -321 -46 -3 -47 -4 0 310 c0 171 2 316 5 324 3 8 22 13 50 13
l45 1 -4 -320z m41 1 c-1 -226 -5 -324 -13 -324 -8 0 -10 85 -8 286 3 367 2
361 14 361 6 0 9 -119 7 -323z m1145 271 c-11 -11 -102 -50 -102 -43 0 2 16
13 36 24 20 12 38 31 41 42 5 19 7 19 21 5 13 -12 13 -19 4 -28z m362 -610
c-3 -354 -6 -643 -7 -645 -1 -1 -28 29 -59 65 -32 37 -68 78 -80 92 -13 14
-56 63 -97 110 -40 47 -91 105 -113 130 -36 42 -37 45 -18 52 46 17 78 65 76
116 0 17 0 32 2 32 4 0 90 -94 127 -137 24 -30 63 -44 66 -25 1 4 3 75 4 157
4 269 16 679 21 687 3 4 23 8 45 8 l39 0 -6 -642z m34 -4 c-2 -469 -6 -651
-14 -662 -9 -12 -11 54 -9 279 2 162 4 456 5 654 3 343 4 375 16 375 3 0 4
-291 2 -646z m-553 590 c1 -10 4 -24 8 -30 9 -15 -19 -39 -76 -64 -43 -19 -62
-40 -37 -40 6 0 10 4 10 8 0 9 107 56 148 65 12 3 22 2 22 -3 0 -4 15 -10 33
-13 17 -3 41 -8 52 -12 11 -3 8 1 -7 10 -37 21 -35 25 7 12 19 -5 45 -21 57
-34 22 -23 22 -25 5 -37 -15 -12 -16 -15 -2 -26 37 -31 -13 -104 -59 -87 -14
5 -14 10 -4 26 18 29 -3 66 -49 89 -44 22 -86 22 -167 -2 -55 -16 -59 -16 -77
0 -27 24 -24 30 20 59 47 29 91 74 91 93 0 21 25 7 25 -14z m-1199 -41 c30
-25 52 -81 48 -121 -1 -15 -2 -39 -3 -54 -1 -16 -6 -28 -12 -28 -6 0 -8 9 -3
23 21 65 -7 138 -73 197 -39 34 -42 39 -16 24 18 -10 45 -28 59 -41z m1577 28
c16 -1 27 -7 27 -15 0 -11 -23 -13 -122 -10 -68 2 -136 4 -152 4 -38 0 -23 17
19 22 26 3 142 3 228 -1z m-1653 -66 c31 -32 14 -32 -29 -1 -56 41 -96 20 -86
-46 4 -30 2 -38 -10 -38 -36 0 -41 89 -6 110 27 17 103 3 131 -25z m1591 15
c46 -13 78 -48 86 -94 10 -62 -34 -110 -89 -98 -26 5 -22 22 5 22 64 0 86 83
33 125 -30 24 -89 45 -127 45 -18 0 -20 3 -10 9 15 9 40 7 102 -9z m-1243 -12
c2 -12 -2 -15 -17 -11 -12 3 -21 12 -21 20 0 20 34 12 38 -9z m1606 -30 c22
-18 59 -49 80 -70 49 -47 70 -54 101 -34 24 16 25 15 25 -3 0 -23 -31 -35 -67
-26 -14 3 -46 26 -72 50 -25 24 -64 60 -86 79 -50 44 -37 47 19 4z m-1981 -88
c22 -26 51 -22 55 8 4 24 22 31 22 8 0 -47 -60 -65 -93 -28 -21 24 -45 93 -39
112 3 9 12 -4 21 -32 9 -26 24 -57 34 -68z m97 95 c0 -16 -75 -68 -91 -63 -7
2 77 77 89 78 1 0 2 -7 2 -15z m423 -6 c18 -25 8 -73 -16 -77 -18 -4 -23 13
-7 23 17 10 11 32 -9 38 -23 6 -42 -14 -60 -59 -7 -18 -27 -45 -44 -60 l-31
-29 25 35 c14 19 31 51 38 70 27 79 72 105 104 59z m1392 11 c3 -5 2 -10 -4
-10 -5 0 -13 5 -16 10 -3 6 -2 10 4 10 5 0 13 -4 16 -10z m25 -73 c0 -6 -11 0
-25 13 -14 13 -25 28 -25 33 0 6 11 0 25 -13 14 -13 25 -28 25 -33z m37 31 c6
-7 16 -31 24 -53 12 -37 13 -38 19 -15 l6 25 14 -25 c8 -14 13 -51 13 -84 -1
-39 2 -54 8 -45 5 8 9 33 9 57 0 50 16 48 26 -3 4 -23 10 -32 20 -28 9 3 14
-2 14 -17 0 -13 7 -28 16 -34 11 -8 19 -40 26 -98 9 -81 8 -89 -16 -149 -34
-83 -24 -90 12 -8 l29 64 -3 -85 c-3 -47 -8 -94 -13 -105 -5 -11 -15 -38 -22
-60 -13 -47 -49 -115 -60 -115 -4 0 -26 -37 -50 -82 -23 -46 -51 -99 -61 -119
-25 -49 -31 -130 -12 -175 8 -20 12 -39 9 -42 -9 -9 -43 38 -47 63 -2 13 -9
19 -20 17 -10 -2 -18 1 -19 5 -6 49 -3 68 18 99 24 34 24 36 5 41 -16 4 -19
12 -16 38 5 56 40 107 92 134 37 19 102 82 118 112 22 43 16 58 -7 22 -12 -18
-28 -33 -36 -33 -8 0 -12 4 -8 9 8 14 -14 24 -28 13 -7 -6 -29 -15 -49 -20
-44 -12 -46 -7 -23 58 19 53 19 60 -1 60 -40 0 24 94 95 139 54 35 85 89 76
132 -8 33 -30 29 -39 -7 -5 -17 -13 -24 -31 -24 -14 0 -25 -5 -25 -11 0 -5
-16 -17 -36 -25 -30 -13 -38 -13 -46 -2 -9 14 -6 51 7 81 5 12 3 17 -8 17 -26
0 -32 61 -12 120 18 53 22 114 10 150 -7 22 7 27 22 8z m-1178 -22 c19 -10 31
-24 31 -36 0 -22 -16 -27 -23 -7 -4 10 -7 10 -18 0 -8 -8 -40 -13 -79 -13 -36
0 -80 -4 -97 -9 -18 -5 -35 -6 -38 -1 -11 18 23 25 113 23 52 -1 92 2 92 7 0
11 -183 7 -217 -5 -19 -6 -23 -4 -23 14 0 11 1 21 3 21 1 0 20 7 42 15 50 19
169 14 214 -9z m-860 -91 c-13 -30 -18 -56 -14 -74 7 -34 45 -71 74 -74 25 -2
29 -17 4 -17 -29 0 -80 43 -90 74 -12 44 13 136 37 136 5 0 0 -20 -11 -45z
m1471 20 c23 -14 29 -54 16 -100 -14 -44 -11 -51 17 -46 20 3 17 -33 -7 -73
-20 -35 -39 -51 -83 -71 -63 -30 -105 -63 -97 -76 9 -15 17 -11 57 26 55 50
159 73 186 41 10 -12 8 -19 -7 -34 -19 -19 -19 -19 1 -47 35 -48 21 -121 -29
-144 -25 -11 -27 -8 -15 24 13 30 -13 72 -53 85 -27 9 -42 8 -70 -4 -118 -49
-80 -280 63 -392 68 -53 122 -73 224 -81 46 -3 82 -11 88 -19 18 -22 -112 -18
-203 5 -159 41 -234 102 -313 256 -52 101 -100 155 -138 155 -43 0 -61 -45
-37 -91 7 -13 7 -19 0 -19 -19 0 -50 40 -50 65 0 29 20 75 32 75 5 0 8 8 6 18
-3 14 5 17 44 16 39 0 54 -6 78 -29 16 -16 30 -35 30 -42 0 -7 5 -13 10 -13 6
0 10 24 10 53 1 28 7 68 13 87 16 43 81 141 131 195 55 60 70 93 57 121 -11
24 -19 28 -56 25 -18 -2 -17 1 7 22 25 24 62 28 88 12z m-690 -8 c0 -4 5 -5
11 -1 7 4 10 1 7 -7 -6 -19 -85 -24 -105 -8 -13 12 -13 14 2 19 26 9 85 7 85
-3z m-607 -33 c20 -4 37 -10 37 -14 0 -4 -19 -4 -42 2 -49 11 -100 4 -135 -19
-32 -21 -44 -6 -14 18 24 20 81 25 154 13z m1530 -13 c23 -3 47 -44 47 -81 0
-37 -24 -78 -47 -81 -5 0 -26 -2 -48 -4 -22 -2 -62 -7 -90 -10 -31 -3 -44 -2
-35 4 8 5 43 11 77 14 74 7 101 20 113 53 22 57 -36 99 -95 68 -25 -13 -31 -9
-17 12 12 18 42 31 65 28 12 -1 25 -3 30 -3z m-898 -15 c11 -8 16 -19 12 -30
-6 -14 -11 -15 -28 -5 -13 6 -39 8 -65 4 -46 -7 -59 6 -32 33 16 16 90 15 113
-2z m146 -8 c14 -27 6 -95 -21 -173 l-20 -60 5 50 c4 28 10 72 14 99 7 41 5
52 -10 67 -11 11 -26 15 -38 12 -17 -4 -20 -2 -15 11 10 25 70 21 85 -6z m61
-84 c-31 -63 -57 -138 -66 -194 -5 -29 -3 -27 14 16 33 83 92 122 148 98 40
-16 59 -55 46 -91 -12 -35 -31 -40 -31 -8 0 55 -61 75 -100 33 -42 -45 -59
-114 -57 -228 l2 -105 -12 60 c-7 33 -12 70 -11 82 1 12 -1 20 -6 17 -8 -4 -7
-36 7 -149 8 -76 -10 -65 -25 15 -12 65 -7 264 8 303 6 15 9 27 6 27 -6 0 51
164 66 188 11 18 16 20 27 8 11 -11 9 -23 -16 -72z m-839 49 c-21 -35 -54 -63
-73 -63 -8 0 -1 7 17 16 17 9 37 29 43 45 7 16 16 29 21 29 5 0 2 -12 -8 -27z
m581 -8 c-4 -8 -10 -12 -15 -9 -14 8 -10 24 6 24 9 0 12 -6 9 -15z m-34 -5 c0
-5 -7 -10 -16 -10 -8 0 -12 5 -9 10 3 6 10 10 16 10 5 0 9 -4 9 -10z m65 0 c3
-5 1 -10 -4 -10 -6 0 -11 5 -11 10 0 6 2 10 4 10 3 0 8 -4 11 -10z m-144 -55
c43 -34 59 -68 93 -199 47 -177 21 -146 -33 40 -12 39 -30 83 -41 97 -40 50
-117 43 -107 -10 5 -28 -8 -39 -28 -23 -19 16 -19 60 0 87 9 12 15 26 14 30
-1 4 -1 11 0 14 2 11 75 -15 102 -36z m-666 -52 c3 -12 22 -39 43 -59 l37 -38
-33 24 c-58 40 -84 99 -64 147 5 14 8 10 10 -17 1 -19 5 -45 7 -57z m484 66
c-29 -55 1 -97 205 -289 32 -30 71 -73 86 -96 29 -42 140 -257 136 -262 -12
-12 -38 20 -67 81 -68 145 -194 257 -290 257 -48 0 -69 -13 -69 -42 0 -24 -27
-23 -40 1 -21 40 -12 69 28 89 38 19 64 18 110 -7 12 -6 22 -8 22 -3 0 10 -27
22 -92 42 -46 14 -87 59 -64 72 13 7 12 12 -1 39 -18 36 -12 92 13 120 23 25
37 24 23 -2z m318 -69 c6 -171 32 -298 85 -427 16 -40 28 -80 25 -90 -3 -14
-7 -11 -16 12 -7 17 -23 53 -36 80 -35 73 -71 204 -95 337 -27 159 -27 170 7
166 26 -3 27 -5 30 -78z m-587 29 c12 -8 12 -9 -5 -7 -49 6 -61 -38 -19 -71
15 -12 25 -21 23 -22 -2 0 -12 -2 -21 -4 -41 -8 -77 72 -46 103 15 15 48 15
68 1z m689 -33 c10 -11 8 -16 -7 -20 -34 -11 -55 -76 -48 -148 3 -35 8 -74 11
-88 4 -17 1 -14 -11 10 -25 53 -25 212 1 240 21 24 38 25 54 6z m788 -32 c15
-12 29 -30 31 -40 3 -15 -1 -14 -20 8 -33 38 -56 46 -116 42 -29 -2 -51 0 -48
5 3 5 32 8 65 7 44 -1 67 -7 88 -22z m47 17 c3 -5 0 -11 -8 -14 -15 -6 -26 1
-26 15 0 11 27 10 34 -1z m439 -26 c-7 -21 -91 -77 -106 -72 -7 2 -1 9 13 17
13 7 38 26 55 41 33 32 47 37 38 14z m-399 -23 c8 -13 -11 -35 -23 -28 -16 10
-14 36 3 36 8 0 17 -4 20 -8z m306 -13 c0 -5 -4 -9 -10 -9 -5 0 -10 7 -10 16
0 8 5 12 10 9 6 -3 10 -10 10 -16z m-406 5 c22 -8 20 -34 -2 -34 -24 0 -32 8
-25 26 6 16 6 16 27 8z m-1524 -24 c0 -11 -14 -11 -50 0 -22 7 -21 8 13 9 20
1 37 -3 37 -9z m75 -1 c4 -5 -5 -9 -19 -9 -14 0 -26 4 -26 8 0 11 39 12 45 1z
m1806 -12 c-13 -13 -26 -3 -16 12 3 6 11 8 17 5 6 -4 6 -10 -1 -17z m-288
-146 c49 -54 53 -61 37 -61 -17 0 -185 181 -188 203 -3 22 16 4 151 -142z m0
133 c9 -10 -4 -34 -18 -34 -17 0 -28 17 -20 30 7 11 28 13 38 4z m-1790 -38
c-8 -48 23 -53 101 -17 70 33 96 42 96 36 0 -3 -22 -16 -48 -29 -27 -13 -55
-32 -62 -41 -19 -23 -58 -37 -81 -30 -11 4 -25 18 -33 33 -12 24 -12 30 2 54
22 38 32 35 25 -6z m461 28 c34 -13 12 -20 -61 -19 -107 1 -174 -16 -240 -61
-132 -91 -189 -243 -148 -394 26 -98 28 -110 19 -110 -11 0 -38 60 -52 115
-25 99 5 241 69 318 42 51 134 112 200 132 30 9 59 18 64 20 18 6 133 5 149
-1z m1630 -29 c-4 -8 -13 -15 -21 -15 -13 0 -13 3 -3 15 7 8 16 15 21 15 5 0
6 -7 3 -15z m-1105 -258 c7 -20 11 -43 8 -50 -6 -17 -38 129 -42 188 -1 28 0
68 4 90 4 28 7 6 12 -75 3 -63 11 -132 18 -153z m-579 38 c7 -283 14 -294 208
-325 48 -8 92 -32 92 -49 -1 -32 -40 -39 -145 -26 -158 20 -233 22 -335 11
-119 -14 -155 -8 -163 26 -9 33 7 45 70 52 70 8 118 37 143 86 26 51 28 71 29
262 l1 167 28 4 c71 11 66 25 72 -208z m39 4 c1 -121 5 -208 12 -220 5 -11 9
-25 6 -32 -2 -6 -12 4 -22 23 -15 30 -19 64 -21 225 -4 192 -2 221 15 211 5
-4 10 -95 10 -207z m-248 144 c-66 -60 -72 -130 -13 -159 27 -13 18 -24 -19
-24 -56 0 -79 82 -37 135 19 25 94 85 106 85 2 0 -14 -17 -37 -37z m1341 20
c22 -20 23 -46 2 -64 -14 -11 -21 -8 -51 24 -18 21 -31 42 -28 47 10 16 57 12
77 -7z m-1467 -154 c-19 -53 -19 -83 1 -121 17 -33 8 -53 -16 -38 -21 13 -19
125 4 168 23 44 28 40 11 -9z m475 -2 c58 -28 68 -38 93 -87 35 -71 49 -198
23 -219 -22 -19 -28 1 -23 78 7 104 -47 189 -145 228 -37 15 -51 33 -25 33 6
0 41 -15 77 -33z m600 -59 c22 -39 35 -47 43 -25 7 20 38 -4 61 -49 20 -37 22
-61 15 -159 -3 -40 1 -55 16 -55 9 0 15 10 16 23 3 75 21 102 78 113 l33 7 -7
-33 -7 -33 39 6 c32 6 44 3 63 -16 l24 -22 -36 -6 c-50 -8 -62 -20 -88 -90
-27 -70 -53 -92 -107 -88 -44 3 -46 -10 -8 -45 30 -27 24 -36 -24 -36 -38 0
-98 30 -107 54 -5 12 -12 11 -45 -6 -54 -28 -101 -18 -151 32 -21 21 -38 42
-38 48 0 6 14 21 31 33 26 18 39 21 85 15 l54 -6 0 29 c0 20 -11 38 -37 63
-50 45 -73 81 -73 115 0 33 14 58 27 50 5 -3 15 11 23 31 7 20 21 56 31 80
l19 43 24 -18 c14 -10 34 -35 46 -55z m-867 56 c4 -4 -2 -19 -13 -34 -22 -31
-25 -61 -9 -91 17 -32 19 -57 5 -68 -17 -15 -45 17 -56 62 -13 58 44 160 73
131z m509 -11 c22 -26 27 -45 15 -68 -10 -19 -11 -19 -17 4 -7 32 -41 44 -69
24 -19 -13 -21 -23 -19 -78 1 -35 -1 -67 -5 -71 -4 -4 -7 6 -8 22 0 16 -2 36
-4 44 -25 101 -10 140 54 140 24 0 44 -7 53 -17z m803 -32 c3 -5 -3 -12 -13
-15 -30 -10 -42 -47 -27 -83 12 -28 75 -84 108 -96 7 -2 9 -7 6 -11 -10 -11
-124 53 -146 82 -46 63 -27 132 37 132 16 0 31 -4 35 -9z m447 -26 c-2 -14 1
-32 8 -40 17 -21 7 -29 -19 -15 -23 12 -26 31 -11 61 15 27 28 24 22 -6z
m-1897 -45 c3 -5 4 -14 0 -20 -8 -13 -35 -1 -35 16 0 16 26 19 35 4z m452 -10
c7 0 23 -42 28 -71 l5 -34 -21 33 c-33 51 -91 56 -108 10 l-8 -22 -12 22 c-24
45 26 87 84 71 16 -5 31 -9 32 -9z m268 -20 c3 -5 -2 -9 -12 -8 -39 3 -53 -3
-59 -27 -3 -14 -10 -22 -15 -19 -10 6 -12 48 -2 57 10 11 81 8 88 -3z m1465
-16 c12 -31 12 -34 1 -34 -5 0 -11 9 -14 20 -7 26 -48 26 -72 0 -11 -12 -20
-41 -23 -73 -4 -51 -3 -54 37 -90 42 -38 49 -62 30 -100 -14 -28 -49 -57 -69
-57 -11 0 -9 5 6 18 54 43 51 109 -6 147 -35 24 -38 51 -11 111 34 75 102 108
121 58z m-2176 -13 c9 -14 -4 -41 -20 -41 -8 0 -14 10 -14 25 0 25 23 35 34
16z m-54 -25 c0 -8 -7 -16 -15 -20 -10 -4 -15 1 -15 14 0 11 7 20 15 20 8 0
15 -6 15 -14z m857 -45 c73 -37 88 -76 31 -83 -15 -2 -45 -15 -66 -30 l-39
-25 -17 28 c-20 33 -64 59 -101 59 -30 0 -33 20 -5 45 14 13 28 16 55 11 27
-5 35 -4 35 8 0 30 31 27 107 -13z m1358 -3 c-10 -13 -14 -16 -11 -8 3 8 9 24
13 35 4 11 8 14 11 7 2 -6 -4 -22 -13 -34z m-528 -14 c-3 -3 -12 -4 -19 -1 -8
3 -5 6 6 6 11 1 17 -2 13 -5z m-125 -86 c-73 -12 -97 -29 -98 -68 -1 -45 -14
-82 -27 -77 -6 2 -15 17 -21 33 -8 21 -16 29 -29 26 -10 -2 -26 -1 -35 3 -13
5 -11 10 13 30 17 13 40 24 53 25 13 0 37 7 53 16 36 18 109 33 124 25 6 -3
-9 -9 -33 -13z m162 -3 c-79 -23 -104 -55 -99 -125 4 -44 37 -72 77 -66 40 6
58 24 58 57 0 29 -29 55 -45 41 -5 -4 -5 -1 -1 6 9 15 38 16 54 0 22 -22 14
-86 -13 -113 -36 -37 -106 -35 -144 2 -15 16 -37 27 -50 27 -12 -1 -24 3 -27
7 -11 19 10 80 40 115 26 30 45 40 101 54 74 19 115 15 49 -5z m-760 -4 c3 -4
-12 -7 -33 -5 -21 1 -56 -6 -79 -16 -46 -21 -108 -96 -93 -114 9 -11 7 -35 -3
-63 -9 -22 -36 3 -36 33 0 19 -5 24 -26 24 -14 0 -35 5 -46 11 -20 11 -20 12
12 26 19 7 46 11 60 8 22 -5 32 0 54 29 15 20 46 45 69 56 43 20 112 27 121
11z m1121 -37 c-21 -41 -18 -83 10 -131 26 -47 15 -57 -26 -24 -34 27 -33 102
1 153 29 43 37 44 15 2z m-2111 -58 c29 -61 12 -119 -31 -111 -10 2 -20 4 -22
4 -3 1 6 12 19 26 24 25 23 42 -8 124 -11 30 25 -7 42 -43z m330 -16 c-21 -20
-86 -30 -124 -19 -22 6 -20 7 12 8 46 1 88 20 88 38 0 11 4 11 21 2 21 -11 21
-11 3 -29z m-230 3 c50 -36 122 -52 203 -46 59 4 100 19 158 59 25 18 46 18
39 1 -17 -46 -188 -104 -268 -92 -51 8 -131 46 -171 79 -41 35 -12 33 39 -1z
m1324 -12 c3 -8 -1 -12 -9 -9 -7 2 -15 10 -17 17 -3 8 1 12 9 9 7 -2 15 -10
17 -17z m-890 -28 c-4 -22 -22 -20 -26 1 -2 10 3 16 13 16 10 0 15 -7 13 -17z
m62 2 c0 -8 -4 -15 -9 -15 -13 0 -22 16 -14 24 11 11 23 6 23 -9z m1375 -22
c7 -9 10 -25 7 -35 -5 -22 -30 -24 -28 -2 0 9 -7 21 -17 28 -13 9 -27 6 -65
-13 -102 -53 -105 -52 -26 4 55 39 108 47 129 18z m-1260 -13 c-10 -16 -81
-33 -109 -26 -46 11 -28 24 28 19 34 -3 56 -1 60 6 4 6 12 11 17 11 6 0 7 -4
4 -10z m-305 -26 c0 -8 -4 -12 -10 -9 -5 3 -10 10 -10 16 0 5 5 9 10 9 6 0 10
-7 10 -16z m140 6 c0 -5 -6 -10 -14 -10 -8 0 -18 5 -21 10 -3 6 3 10 14 10 12
0 21 -4 21 -10z"/>
<path d="M778 2372 c-10 -2 -18 -8 -18 -13 0 -13 27 -11 35 2 9 13 4 16 -17
11z"/>
<path d="M2195 2265 c-22 -8 -41 -15 -42 -15 -4 0 -33 -58 -33 -65 0 -4 12 8
27 25 15 18 45 41 67 51 49 21 37 24 -19 4z"/>
<path d="M1775 2023 c2 -10 4 -26 4 -36 1 -10 5 -16 9 -13 11 6 3 66 -8 66 -5
0 -7 -8 -5 -17z"/>
<path d="M1750 2015 c0 -8 4 -15 10 -15 5 0 7 7 4 15 -4 8 -8 15 -10 15 -2 0
-4 -7 -4 -15z"/>
<path d="M1680 2016 c0 -6 56 -122 87 -181 9 -16 31 -49 50 -72 42 -53 42 -66
1 -48 -25 10 -32 19 -31 37 3 21 2 22 -11 6 -9 -13 -27 -18 -60 -18 -25 0 -46
-4 -46 -8 0 -5 16 -8 36 -7 38 3 119 -23 160 -50 13 -8 26 -15 28 -15 7 0 -18
42 -70 116 -22 33 -60 98 -83 146 -36 75 -61 113 -61 94z"/>
<path d="M1610 1905 c0 -2 10 -10 23 -16 20 -11 21 -11 8 4 -13 16 -31 23 -31
12z"/>
<path d="M1725 1799 c-4 -6 -5 -12 -2 -15 2 -3 7 2 10 11 7 17 1 20 -8 4z"/>
<path d="M1747 1783 c-4 -3 -7 -11 -7 -17 0 -6 5 -5 12 2 6 6 9 14 7 17 -3 3
-9 2 -12 -2z"/>
<path d="M489 336 c-3 -3 -153 -15 -201 -16 -10 0 -18 -5 -18 -10 0 -6 10 -8
23 -5 39 10 256 12 357 3 141 -12 160 -12 170 -2 5 5 -18 9 -58 9 -70 0 -252
14 -263 21 -3 2 -8 2 -10 0z"/>
<path d="M226 308 c3 -4 12 -8 20 -8 8 0 14 4 14 8 0 4 -9 8 -19 8 -11 0 -17
-4 -15 -8z"/>
<path d="M1377 521 c-4 -17 -3 -21 5 -13 5 5 8 16 6 23 -3 8 -7 3 -11 -10z"/>
<path d="M1172 424 c10 -10 20 -16 22 -13 3 3 -5 11 -17 18 -21 13 -21 12 -5
-5z"/>
<path d="M1465 430 c-3 -5 -1 -10 4 -10 6 0 11 5 11 10 0 6 -2 10 -4 10 -3 0
-8 -4 -11 -10z"/>
<path d="M1314 383 c3 -16 12 -56 20 -91 7 -35 17 -66 21 -70 4 -4 5 2 2 13
-3 11 -8 38 -12 60 -8 55 -25 115 -32 115 -3 0 -3 -12 1 -27z"/>
<path d="M1234 269 c-19 -22 -19 -22 4 -10 12 6 22 16 22 21 0 15 -5 12 -26
-11z"/>
<path d="M1145 220 c3 -5 8 -10 11 -10 2 0 4 5 4 10 0 6 -5 10 -11 10 -5 0 -7
-4 -4 -10z"/>
<path d="M1105 210 c10 -17 43 -31 49 -21 3 5 -8 14 -24 20 -18 6 -28 6 -25 1z"/>
</g>
</svg>
